<?xml version="1.0" encoding="UTF-8" standalone="no"?>
<!-- Created with Inkscape (http://www.inkscape.org/) -->

<svg
   xmlns:dc="http://purl.org/dc/elements/1.1/"
   xmlns:cc="http://creativecommons.org/ns#"
   xmlns:rdf="http://www.w3.org/1999/02/22-rdf-syntax-ns#"
   xmlns:svg="http://www.w3.org/2000/svg"
   xmlns="http://www.w3.org/2000/svg"
   xmlns:sodipodi="http://sodipodi.sourceforge.net/DTD/sodipodi-0.dtd"
   xmlns:inkscape="http://www.inkscape.org/namespaces/inkscape"
   version="1.1"
   id="svg4518"
   width="1365.3333"
   height="681.59998"
   viewBox="0 0 1365.3333 681.59998"
   sodipodi:docname="logo_aster.svg"
   inkscape:version="0.92.4 (5da689c313, 2019-01-14)">
  <metadata
     id="metadata4524">
    <rdf:RDF>
      <cc:Work
         rdf:about="">
        <dc:format>image/svg+xml</dc:format>
        <dc:type
           rdf:resource="http://purl.org/dc/dcmitype/StillImage" />
        <dc:title></dc:title>
      </cc:Work>
    </rdf:RDF>
  </metadata>
  <defs
     id="defs4522" />
  <sodipodi:namedview
     pagecolor="#ffffff"
     bordercolor="#666666"
     borderopacity="1"
     objecttolerance="10"
     gridtolerance="10"
     guidetolerance="10"
     inkscape:pageopacity="0"
     inkscape:pageshadow="2"
     inkscape:window-width="3200"
     inkscape:window-height="1755"
     id="namedview4520"
     showgrid="false"
     inkscape:zoom="1.82959"
     inkscape:cx="698.24389"
     inkscape:cy="340.79999"
     inkscape:window-x="-13"
     inkscape:window-y="-13"
     inkscape:window-maximized="1"
     inkscape:current-layer="svg4518" />
  <g
     id="g4528"
     transform="translate(1.6397116,2.1862829)">
    <path
       style="fill:#d7b458;stroke-width:1"
       d="m 557.86665,556.6532 c -11.73108,-1.01222 -26.10351,-4.86132 -35.08914,-9.39726 -15.96202,-8.0576 -32.48404,-25.61251 -41.71477,-44.32262 -8.83829,-17.91468 -12.47111,-36.82969 -10.68634,-55.64048 1.46998,-15.49278 4.11831,-24.31141 12.60089,-41.95952 6.76563,-14.07597 8.02714,-20.81525 5.00893,-26.75886 -1.01695,-2.00262 -5.14535,-8.25168 -9.17421,-13.88677 -8.79443,-12.30061 -11.24586,-17.49172 -9.34297,-19.78456 3.747,-4.51486 13.24182,-6.04739 19.00441,-3.06744 2.89746,1.49835 16.05987,15.20928 16.05987,16.72916 0,0.4003 1.69969,1.77828 3.77709,3.06218 5.59869,3.46018 13.26485,2.90875 36.45437,-2.62219 25.17795,-6.0052 29.35714,-6.53411 38.29861,-4.84697 10.3835,1.95922 37.80989,15.92406 49.16154,25.03185 16.22786,13.02011 29.44741,33.03204 34.53326,52.27693 3.45397,13.06981 3.91377,32.3058 1.09811,45.94013 -10.66141,51.62607 -55.52022,83.94639 -109.98965,79.24642 z m 34.25441,-28.65885 c 10.08385,-1.88195 18.69769,-6.96723 28.76683,-16.98284 10.23772,-10.18331 15.39308,-18.47055 19.29175,-31.01152 3.20963,-10.32449 3.4685,-30.76712 0.52679,-41.6 -6.84685,-25.21359 -25.56952,-46.15086 -47.77235,-53.42313 -6.74413,-2.20895 -9.92343,-2.57687 -22.26743,-2.57687 -12.99319,0 -15.31763,0.30077 -23.79279,3.07864 -20.61507,6.75695 -37.74951,22.24224 -47.16869,42.62882 -5.44758,11.79059 -7.26837,21.28577 -6.47363,33.7592 0.35509,5.57334 1.34462,12.42765 2.19893,15.23182 4.07818,13.38607 18.27109,33.55297 29.04156,41.26553 6.65251,4.76376 14.88754,8.16324 23.09776,9.53491 7.81506,1.30565 37.72342,1.36973 44.55127,0.0955 z M 243.9545,481.60918 c -11.58942,-2.3856 -15.39701,-5.40157 -22.90456,-18.14253 -8.43117,-14.30841 -8.48548,-16.04918 -0.91643,-29.37353 5.04942,-8.88886 6.54485,-10.63357 12.53333,-14.62257 3.73991,-2.4912 8.47982,-4.80559 10.53315,-5.14311 2.05334,-0.33751 9.59323,-1.77926 16.75531,-3.20389 17.89169,-3.55887 19.3999,-3.38351 20.05853,2.33222 0.19505,1.69266 1.36023,6.43755 2.5893,10.54422 4.71833,15.76535 3.96469,33.88344 -1.85677,44.63786 -6.08355,11.23863 -20.50645,16.32357 -36.79186,12.97133 z m 11.7791,-16.67175 c 14.5228,-7.03037 14.14071,-31.01666 -0.55283,-34.70451 -7.79959,-1.95757 -18.16223,4.76616 -20.45214,13.27026 -2.80814,10.42866 5.10922,23.5647 14.26793,23.67252 1.13477,0.0133 4.16644,-0.99387 6.73704,-2.23827 z m 27.36505,-67.185 c -1.49714,-1.65598 -1.98796,-3.66592 -1.86473,-7.63611 0.33945,-10.93507 11.04485,-26.03083 16.42009,-23.15409 5.13855,2.75007 2.65766,18.96849 -4.38973,28.69712 -3.58992,4.95575 -6.95173,5.64794 -10.16563,2.09308 z m -137.86,-38.48837 c -14.82318,-1.65635 -27.88754,-8.32839 -38.64695,-19.73722 -23.688079,-25.11786 -24.033498,-60.71759 -0.82597,-85.12685 8.65965,-9.10807 15.89296,-13.59378 29.46556,-18.27296 15.95796,-5.50153 24.0078,-4.5827 43.68641,4.98654 15.22882,7.40542 22.02626,14.17502 29.05955,28.94052 7.95661,16.70391 10.25579,18.66455 24.32703,20.74502 9.1561,1.35375 14.62905,3.92523 14.62905,6.87351 0,2.87012 -6.77751,6.14372 -14.1711,6.84477 -3.93923,0.3735 -8.49373,0.93056 -10.12112,1.23789 -4.6239,0.87321 -8.97043,5.17283 -9.81126,9.70536 -2.13855,11.52807 -17.43624,30.20674 -30.13652,36.79709 -3.97467,2.0625 -9.0336,4.32777 -11.24208,5.03394 -5.90736,1.8889 -18.48805,2.83554 -26.2126,1.97239 z m 19.99248,-18.55842 c 9.10272,-4.55391 19.22394,-13.5751 24.69183,-22.0082 8.48769,-13.09049 9.776,-30.72035 3.21832,-44.04089 -4.25983,-8.65294 -13.70383,-17.56493 -22.17107,-20.92211 -5.01686,-1.98914 -8.26686,-2.45466 -17.38684,-2.49044 -10.65539,-0.0418 -11.58771,0.13854 -18.63331,3.60436 -14.16624,6.96856 -28.40672,24.60504 -30.10784,37.28781 -0.72664,5.41754 1.3277,16.30844 4.10204,21.7466 2.83852,5.56395 15.86748,19.07623 22.88571,23.73466 12.40052,8.231 21.44904,9.06761 33.40116,3.08821 z m 141.24632,18.01838 c -4.49244,-0.87451 -4.90522,-2.75683 -2.4077,-10.97939 3.83506,-12.62612 0.84222,-24.17328 -8.82126,-34.03466 -6.3454,-6.47536 -11.87384,-8.72418 -22.13819,-9.00523 -9.92272,-0.27169 -13.15968,-2.19926 -12.62873,-7.52023 0.28502,-2.85633 0.87801,-3.33554 5.65176,-4.56726 2.93333,-0.75686 8.21333,-1.38804 11.73333,-1.40263 3.52,-0.0146 8.22286,-0.53272 10.45079,-1.15141 6.29272,-1.74744 6.65893,-3.80358 4.45205,-24.99655 -2.15244,-20.67016 -1.73953,-39.54859 1.10818,-50.66667 0.97672,-3.81333 4.17513,-11.92048 7.10757,-18.01589 4.60015,-9.56192 6.59973,-12.35875 14.57323,-20.38366 7.46164,-7.50975 10.98771,-10.15556 18.30818,-13.73766 12.07032,-5.90634 22.17751,-7.97739 35.2,-7.21279 5.57333,0.32723 13.01333,1.36063 16.53333,2.29644 15.56463,4.13792 37.68124,18.32993 46.77726,30.0165 7.70428,9.89845 18.98991,14.77442 26.7202,11.5445 5.07792,-2.12169 14.99929,-2.03137 18.72672,0.17047 3.56467,2.10571 6.44248,6.69599 6.44248,10.27615 0,5.70254 -7.10315,11.05588 -18.66571,14.06754 -7.64178,1.99044 -11.17606,4.57976 -15.83818,11.60353 -6.30201,9.49439 -14.56277,32.7494 -14.56277,40.99593 0,5.64867 3.80742,11.63088 14.54248,22.84903 15.75357,16.46253 17.35568,20.62273 10.45005,27.13557 -7.77475,7.33255 -11.40423,5.95756 -24.53637,-9.2953 -9.84285,-11.43237 -15.73313,-16.41443 -20.69534,-17.50432 -7.36754,-1.61819 -15.88159,3.38331 -33.62749,19.75412 -17.79269,16.41399 -26.62304,20.64629 -43.25547,20.73194 -12.40272,0.0639 -14.40918,1.12867 -19.25355,10.21765 -2.06241,3.86948 -4.65793,7.11244 -6.42301,8.02519 -1.62912,0.84245 -3.10586,1.46636 -3.28166,1.38647 -0.1758,-0.0799 -1.36478,-0.34872 -2.64218,-0.59738 z m 54.93343,-36.69082 c 3.72675,-1.60184 4.54488,-2.43995 4.26667,-4.37088 -0.47594,-3.30315 -5.87703,-6.64904 -16.04839,-9.9417 -11.977,-3.87717 -21.66156,-8.97155 -30.28199,-15.92925 -4.04095,-3.26151 -8.06718,-5.79703 -8.94718,-5.63448 -1.27044,0.23467 -1.58657,2.04777 -1.53478,8.80266 0.0537,7.00356 0.58361,9.58646 2.99832,14.61408 1.61322,3.35885 4.31216,7.08895 5.99765,8.28912 9.79029,6.97131 32.06957,9.10484 43.5497,4.17045 z m 5.72009,-33.23321 c 2.91959,-2.32814 3.267,-8.1131 0.79401,-13.2216 -7.98211,-16.48884 -40.97423,-23.4426 -42.40269,-8.93722 -0.66052,6.70716 8.85406,13.90347 26.36394,19.94025 11.39908,3.92998 12.83627,4.13915 15.24474,2.21857 z M 401.83,274.39674 c 15.30675,-16.95197 21.89211,-29.46105 22.03886,-41.86341 0.10123,-8.55318 -3.71244,-17.10162 -13.31398,-29.84382 -12.50612,-16.59688 -27.89377,-27.77358 -38.19192,-27.74042 -13.64908,0.0439 -28.95468,6.63173 -40.20834,17.30631 -8.0436,7.62968 -12.35976,14.58543 -16.38865,26.41126 -4.79509,14.07478 -3.95947,22.99951 2.46446,26.32145 3.32647,1.72018 3.88498,1.71315 25.31897,-0.31886 12.20884,-1.15743 17.81301,2.62123 38.54903,25.99197 5.85861,6.60299 11.01476,12.00544 11.45813,12.00544 0.44337,0 4.16642,-3.72146 8.27344,-8.26992 z m 388.67397,83.31603 c -2.22683,-1.55974 -2.44163,-2.35832 -1.94047,-7.21418 0.31203,-3.02328 5.59414,-19.30371 11.83494,-36.47743 16.91337,-46.54299 21.02268,-55.40739 30.37777,-65.52936 3.45432,-3.73747 5.76489,-5.39538 7.14812,-5.12899 3.18794,0.61394 11.85764,13.06852 18.07823,25.97052 8.16588,16.93671 31.46409,80.40569 31.46409,85.71449 0,3.02772 -2.26654,4.41884 -7.19964,4.41884 -8.36854,0 -13.93878,-4.75559 -17.76831,-15.16967 -2.53691,-6.8989 -6.4763,-9.92881 -14.79186,-11.37689 -3.74823,-0.65273 -8.4163,-1.18678 -10.37353,-1.18678 -1.95722,0 -6.6253,0.53405 -10.37352,1.18678 -8.54881,1.4887 -12.42976,4.59055 -14.94528,11.94501 -1.15242,3.36924 -3.62655,7.26293 -6.38646,10.05074 -3.73172,3.76944 -5.20191,4.55081 -8.56266,4.55081 -2.23156,0 -5.1842,-0.78925 -6.56142,-1.75389 z m 46.82934,-39.0601 c 2.64,0 6.09788,0.35487 7.68416,0.78861 4.5967,1.25687 4.8071,-2.65929 0.8981,-16.71642 -3.44917,-12.4036 -7.90691,-21.16022 -9.80551,-19.26161 -1.73165,1.73164 -10.50799,28.30989 -10.50907,31.82563 -10e-4,4.17266 0.90533,5.04957 4.25263,4.11331 1.47383,-0.41224 4.83969,-0.74952 7.47969,-0.74952 z m 189.92219,39.87357 c -6.1745,-1.10735 -7.533,-4.85591 -8.6375,-23.83455 -0.5214,-8.96044 -0.9638,-26.70807 -0.9831,-39.4392 -0.052,-34.44599 -1.4335,-38.18583 -14.1064,-38.18583 -8.08553,0 -14.97572,-1.74465 -17.99342,-4.55606 l -2.37695,-2.21447 2.28652,-1.85152 c 4.3983,-3.56152 16.15025,-4.71128 48.15535,-4.71128 31.2824,0 41.0354,1.02089 42.3445,4.43241 1.4601,3.80483 -8.8483,8.90092 -18.0048,8.90092 -9.6942,0 -11.5557,6.817 -13.6896,50.13333 -1.2965,26.31891 -2.6781,37.51413 -5.3315,43.2 -2.209,4.73373 -5.7106,9.14244 -7.0896,8.92625 -0.4926,-0.0772 -2.5507,-0.43723 -4.5735,-0.8 z m 174.5251,-1.24144 c -5.0511,-3.97322 -5.2939,-6.58643 -5.7738,-62.16903 l -0.4496,-52.08421 25.9547,0.36028 c 24.6276,0.34187 26.2426,0.48993 31.5861,2.89575 7.1509,3.21961 13.9783,10.73975 19.0299,20.96087 4.9773,10.07101 4.6648,11.84017 -5.2672,29.8182 -6.9065,12.50144 -7.6607,14.44708 -7.6607,19.76201 0,5.45146 0.5718,6.81681 7.5945,18.13334 9.5087,15.32245 10.0055,16.29533 10.0055,19.59699 0,5.64816 -8.9366,6.70181 -15.6422,1.84427 -5.2386,-3.79484 -9.1548,-8.77852 -15.9097,-20.24615 -2.8865,-4.90024 -6.9744,-10.78024 -9.0843,-13.06667 -7.8159,-8.46985 -11.2659,-4.3723 -12.747,15.13921 -0.5578,7.34898 -1.6368,14.00842 -2.5584,15.79053 -2.8259,5.46487 -13.8767,7.35586 -19.0778,3.26461 z m 43.0569,-61.30421 c 3.9148,-2.02445 4.6819,-4.99897 3.9124,-15.17213 -1.0648,-14.08079 -8.254,-23.12682 -17.8166,-22.41839 -5.6573,0.41913 -7.4634,4.8742 -7.4634,18.40992 0,15.88698 3.1927,20.74843 13.6497,20.78428 2.5225,0.009 5.9956,-0.713 7.7179,-1.60368 z m -320.57086,61.71887 c -7.44278,-0.88589 -11.05913,-2.55308 -13.25904,-6.1126 -5.48572,-8.8761 -1.48489,-11.85354 15.92777,-11.85354 15.49305,0 18.13127,-1.23733 18.13127,-8.50363 0,-4.07727 -0.47278,-5.07883 -3.46666,-7.34396 -1.90667,-1.44256 -6.39413,-3.57715 -9.97214,-4.74353 -8.50091,-2.7712 -12.06569,-4.68972 -15.57128,-8.38031 -5.62933,-5.92641 -8.33964,-16.86578 -6.18678,-24.97107 1.85776,-6.99427 10.67628,-15.2441 18.85387,-17.63801 5.79179,-1.6955 7.0517,-1.70225 18.72263,-0.10037 14.40965,1.97773 16.82036,2.94112 16.82036,6.72192 0,6.95803 -5.03672,9.84219 -17.29961,9.90621 -4.48579,0.0235 -9.38848,0.35191 -10.89485,0.72999 -2.57349,0.64586 -2.73887,1.08799 -2.73887,7.32219 0,5.63184 0.49881,7.38788 3.2996,11.6163 4.09453,6.18163 5.00988,6.76482 6.79211,4.32746 1.36816,-1.87106 1.62553,-1.87119 7.54947,-0.004 11.19245,3.5281 19.69215,15.03136 19.69215,26.6508 0,10.23887 -11.05371,19.06161 -25.43503,20.30148 -4.30926,0.37152 -8.71771,1.14789 -9.79654,1.72525 -1.91946,1.02727 -4.73292,1.11524 -11.16843,0.34924 z m 199.96706,-1.77464 c -13.2889,-5.23663 -20.277,-11.33128 -25.9554,-22.6369 -10.2994,-20.50569 -4.4638,-42.28885 15.5877,-58.18582 5.5232,-4.37882 6.8991,-4.61175 26.2079,-4.43683 10.5143,0.0953 13.1728,1.54329 24.1002,13.12692 10.5557,11.18955 14.1649,23.53839 8.8286,30.20704 -2.2579,2.82166 -3.295,3.15554 -13.0184,4.19098 -16.5712,1.76466 -36.6337,-1.09837 -39.4326,-5.62725 -2.4074,-3.89517 7.5915,-8.56297 18.3428,-8.56297 5.7502,0 13.1055,-2.27296 13.1055,-4.04987 0,-1.85907 -12.5659,-12.91738 -15.5212,-13.65913 -2.1659,-0.54359 -4.2962,-0.0606 -7.7018,1.74605 -8.7868,4.66142 -13.0437,13.21471 -13.0437,26.20881 0,9.8513 2.24,15.86266 6.7989,18.24591 2.2766,1.19013 7.5644,1.96657 16.6678,2.44741 16.4549,0.86914 21.6752,2.82277 22.2083,8.31132 0.281,2.89178 -0.3882,4.24694 -3.7627,7.62154 -7.4297,7.42976 -21.8471,9.61005 -33.4119,5.05279 z M 642.59949,234.68974 c -15.87027,-3.33381 -38.16833,-17.57787 -41.0138,-26.19972 -1.53175,-4.64127 -11.91599,-11.80226 -18.55919,-12.79847 -3.73588,-0.56024 -5.61007,-1.71839 -9.56947,-5.9135 -3.21393,-3.40526 -4.92371,-6.16535 -4.92371,-7.94836 0,-3.58685 4.34973,-7.52595 10.86619,-9.84039 4.027,-1.43027 6.3641,-3.2981 10.49086,-8.38443 2.92029,-3.59932 5.31412,-7.20286 5.31962,-8.00787 0.0219,-3.20244 6.61183,-12.69074 12.39249,-17.84297 6.78578,-6.04807 19.19224,-12.90917 28.05777,-15.51669 7.32984,-2.15585 20.17012,-2.1871 28.30244,-0.0689 22.86175,5.95473 40.03729,28.43509 40.03729,52.40317 0,14.83473 -5.00202,27.44204 -15.22276,38.36803 -15.43221,16.49709 -32.62801,24.59646 -46.17773,21.75011 z m 20.07439,-31.19045 c 9.48076,-5.05012 12.73944,-12.26444 12.73944,-28.20352 0,-19.59643 -6.98213,-26.45689 -26.88,-26.41166 -14.45474,0.0329 -23.35964,4.63233 -28.46168,14.70072 -5.81346,11.47231 -4.25226,22.89607 4.44457,32.52244 10.93986,12.10911 24.40506,14.71763 38.15767,7.39202 z m -152.12184,6.60395 c -4.52478,-1.35595 -6.798,-3.88754 -8.73949,-9.73278 -1.61394,-4.85914 -1.61307,-5.44239 0.0117,-7.92217 2.31301,-3.53011 4.91232,-4.44673 21.3757,-7.53791 16.60914,-3.11855 26.13115,-3.64399 28.62872,-1.57978 2.50847,2.07322 2.20151,8.39899 -0.64627,13.31784 -5.81536,10.04465 -27.76012,17.31168 -40.6304,13.4548 z"
       id="path4542"
       inkscape:connector-curvature="0" />
    <path
       style="fill:#8da4af;stroke-width:1"
       d="m 557.86665,556.6532 c -11.73108,-1.01222 -26.10351,-4.86132 -35.08914,-9.39726 -15.96202,-8.0576 -32.48404,-25.61251 -41.71477,-44.32262 -8.83829,-17.91468 -12.47111,-36.82969 -10.68634,-55.64048 1.46998,-15.49278 4.11831,-24.31141 12.60089,-41.95952 6.76563,-14.07597 8.02714,-20.81525 5.00893,-26.75886 -1.01695,-2.00262 -5.14535,-8.25168 -9.17421,-13.88677 -8.79443,-12.30061 -11.24586,-17.49172 -9.34297,-19.78456 3.747,-4.51486 13.24182,-6.04739 19.00441,-3.06744 2.89746,1.49835 16.05987,15.20928 16.05987,16.72916 0,0.4003 1.69969,1.77828 3.77709,3.06218 5.59869,3.46018 13.26485,2.90875 36.45437,-2.62219 25.17795,-6.0052 29.35714,-6.53411 38.29861,-4.84697 10.3835,1.95922 37.80989,15.92406 49.16154,25.03185 16.22786,13.02011 29.44741,33.03204 34.53326,52.27693 3.45397,13.06981 3.91377,32.3058 1.09811,45.94013 -10.66141,51.62607 -55.52022,83.94639 -109.98965,79.24642 z m 34.25441,-28.65885 c 10.08385,-1.88195 18.69769,-6.96723 28.76683,-16.98284 10.23772,-10.18331 15.39308,-18.47055 19.29175,-31.01152 3.20963,-10.32449 3.4685,-30.76712 0.52679,-41.6 -6.84685,-25.21359 -25.56952,-46.15086 -47.77235,-53.42313 -6.74413,-2.20895 -9.92343,-2.57687 -22.26743,-2.57687 -12.99319,0 -15.31763,0.30077 -23.79279,3.07864 -20.61507,6.75695 -37.74951,22.24224 -47.16869,42.62882 -5.44758,11.79059 -7.26837,21.28577 -6.47363,33.7592 0.35509,5.57334 1.34462,12.42765 2.19893,15.23182 4.07818,13.38607 18.27109,33.55297 29.04156,41.26553 6.65251,4.76376 14.88754,8.16324 23.09776,9.53491 7.81506,1.30565 37.72342,1.36973 44.55127,0.0955 z M 243.9545,481.60918 c -11.58942,-2.3856 -15.39701,-5.40157 -22.90456,-18.14253 -8.43117,-14.30841 -8.48548,-16.04918 -0.91643,-29.37353 5.04942,-8.88886 6.54485,-10.63357 12.53333,-14.62257 3.73991,-2.4912 8.47982,-4.80559 10.53315,-5.14311 2.05334,-0.33751 9.59323,-1.77926 16.75531,-3.20389 17.89169,-3.55887 19.3999,-3.38351 20.05853,2.33222 0.19505,1.69266 1.36023,6.43755 2.5893,10.54422 4.71833,15.76535 3.96469,33.88344 -1.85677,44.63786 -6.08355,11.23863 -20.50645,16.32357 -36.79186,12.97133 z m 11.7791,-16.67175 c 14.5228,-7.03037 14.14071,-31.01666 -0.55283,-34.70451 -7.79959,-1.95757 -18.16223,4.76616 -20.45214,13.27026 -2.80814,10.42866 5.10922,23.5647 14.26793,23.67252 1.13477,0.0133 4.16644,-0.99387 6.73704,-2.23827 z m 27.36505,-67.185 c -1.49714,-1.65598 -1.98796,-3.66592 -1.86473,-7.63611 0.33945,-10.93507 11.04485,-26.03083 16.42009,-23.15409 5.13855,2.75007 2.65766,18.96849 -4.38973,28.69712 -3.58992,4.95575 -6.95173,5.64794 -10.16563,2.09308 z m -137.86,-38.48837 c -14.82318,-1.65635 -27.88754,-8.32839 -38.64695,-19.73722 -23.688079,-25.11786 -24.033498,-60.71759 -0.82597,-85.12685 8.65965,-9.10807 15.89296,-13.59378 29.46556,-18.27296 15.95796,-5.50153 24.0078,-4.5827 43.68641,4.98654 15.22882,7.40542 22.02626,14.17502 29.05955,28.94052 7.95661,16.70391 10.25579,18.66455 24.32703,20.74502 9.1561,1.35375 14.62905,3.92523 14.62905,6.87351 0,2.87012 -6.77751,6.14372 -14.1711,6.84477 -3.93923,0.3735 -8.49373,0.93056 -10.12112,1.23789 -4.6239,0.87321 -8.97043,5.17283 -9.81126,9.70536 -2.13855,11.52807 -17.43624,30.20674 -30.13652,36.79709 -3.97467,2.0625 -9.0336,4.32777 -11.24208,5.03394 -5.90736,1.8889 -18.48805,2.83554 -26.2126,1.97239 z m 19.99248,-18.55842 c 9.10272,-4.55391 19.22394,-13.5751 24.69183,-22.0082 8.48769,-13.09049 9.776,-30.72035 3.21832,-44.04089 -4.25983,-8.65294 -13.70383,-17.56493 -22.17107,-20.92211 -5.01686,-1.98914 -8.26686,-2.45466 -17.38684,-2.49044 -10.65539,-0.0418 -11.58771,0.13854 -18.63331,3.60436 -14.16624,6.96856 -28.40672,24.60504 -30.10784,37.28781 -0.72664,5.41754 1.3277,16.30844 4.10204,21.7466 2.83852,5.56395 15.86748,19.07623 22.88571,23.73466 12.40052,8.231 21.44904,9.06761 33.40116,3.08821 z m 625.27284,17.00713 c -2.22683,-1.55974 -2.44163,-2.35832 -1.94047,-7.21418 0.31203,-3.02328 5.59414,-19.30371 11.83494,-36.47743 16.91337,-46.54299 21.02268,-55.40739 30.37777,-65.52936 3.45432,-3.73747 5.76489,-5.39538 7.14812,-5.12899 3.18794,0.61394 11.85764,13.06852 18.07823,25.97052 8.16588,16.93671 31.46409,80.40569 31.46409,85.71449 0,3.02772 -2.26654,4.41884 -7.19964,4.41884 -8.36854,0 -13.93878,-4.75559 -17.76831,-15.16967 -2.53691,-6.8989 -6.4763,-9.92881 -14.79186,-11.37689 -3.74823,-0.65273 -8.4163,-1.18678 -10.37353,-1.18678 -1.95722,0 -6.6253,0.53405 -10.37352,1.18678 -8.54881,1.4887 -12.42976,4.59055 -14.94528,11.94501 -1.15242,3.36924 -3.62655,7.26293 -6.38646,10.05074 -3.73172,3.76944 -5.20191,4.55081 -8.56266,4.55081 -2.23156,0 -5.1842,-0.78925 -6.56142,-1.75389 z m 46.82934,-39.0601 c 2.64,0 6.09788,0.35487 7.68416,0.78861 4.5967,1.25687 4.8071,-2.65929 0.8981,-16.71642 -3.44917,-12.4036 -7.90691,-21.16022 -9.80551,-19.26161 -1.73165,1.73164 -10.50799,28.30989 -10.50907,31.82563 -10e-4,4.17266 0.90533,5.04957 4.25263,4.11331 1.47383,-0.41224 4.83969,-0.74952 7.47969,-0.74952 z m 189.92219,39.87357 c -6.1745,-1.10735 -7.533,-4.85591 -8.6375,-23.83455 -0.5214,-8.96044 -0.9638,-26.70807 -0.9831,-39.4392 -0.052,-34.44599 -1.4335,-38.18583 -14.1064,-38.18583 -8.08553,0 -14.97572,-1.74465 -17.99342,-4.55606 l -2.37695,-2.21447 2.28652,-1.85152 c 4.3983,-3.56152 16.15025,-4.71128 48.15535,-4.71128 31.2824,0 41.0354,1.02089 42.3445,4.43241 1.4601,3.80483 -8.8483,8.90092 -18.0048,8.90092 -9.6942,0 -11.5557,6.817 -13.6896,50.13333 -1.2965,26.31891 -2.6781,37.51413 -5.3315,43.2 -2.209,4.73373 -5.7106,9.14244 -7.0896,8.92625 -0.4926,-0.0772 -2.5507,-0.43723 -4.5735,-0.8 z m 174.5251,-1.24144 c -5.0511,-3.97322 -5.2939,-6.58643 -5.7738,-62.16903 l -0.4496,-52.08421 25.9547,0.36028 c 24.6276,0.34187 26.2426,0.48993 31.5861,2.89575 7.1509,3.21961 13.9783,10.73975 19.0299,20.96087 4.9773,10.07101 4.6648,11.84017 -5.2672,29.8182 -6.9065,12.50144 -7.6607,14.44708 -7.6607,19.76201 0,5.45146 0.5718,6.81681 7.5945,18.13334 9.5087,15.32245 10.0055,16.29533 10.0055,19.59699 0,5.64816 -8.9366,6.70181 -15.6422,1.84427 -5.2386,-3.79484 -9.1548,-8.77852 -15.9097,-20.24615 -2.8865,-4.90024 -6.9744,-10.78024 -9.0843,-13.06667 -7.8159,-8.46985 -11.2659,-4.3723 -12.747,15.13921 -0.5578,7.34898 -1.6368,14.00842 -2.5584,15.79053 -2.8259,5.46487 -13.8767,7.35586 -19.0778,3.26461 z m 43.0569,-61.30421 c 3.9148,-2.02445 4.6819,-4.99897 3.9124,-15.17213 -1.0648,-14.08079 -8.254,-23.12682 -17.8166,-22.41839 -5.6573,0.41913 -7.4634,4.8742 -7.4634,18.40992 0,15.88698 3.1927,20.74843 13.6497,20.78428 2.5225,0.009 5.9956,-0.713 7.7179,-1.60368 z m -941.90628,60.81687 c -2.16859,-2.613 1.77613,-12.11317 6.29318,-15.15598 5.9848,-4.03151 11.84226,-2.83858 11.84226,2.4118 0,3.40417 -5.61815,10.53262 -9.9039,12.56635 -4.63533,2.1996 -6.51982,2.24032 -8.23154,0.17783 z m 621.33542,0.902 c -7.44278,-0.88589 -11.05913,-2.55308 -13.25904,-6.1126 -5.48572,-8.8761 -1.48489,-11.85354 15.92777,-11.85354 15.49305,0 18.13127,-1.23733 18.13127,-8.50363 0,-4.07727 -0.47278,-5.07883 -3.46666,-7.34396 -1.90667,-1.44256 -6.39413,-3.57715 -9.97214,-4.74353 -8.50091,-2.7712 -12.06569,-4.68972 -15.57128,-8.38031 -5.62933,-5.92641 -8.33964,-16.86578 -6.18678,-24.97107 1.85776,-6.99427 10.67628,-15.2441 18.85387,-17.63801 5.79179,-1.6955 7.0517,-1.70225 18.72263,-0.10037 14.40965,1.97773 16.82036,2.94112 16.82036,6.72192 0,6.95803 -5.03672,9.84219 -17.29961,9.90621 -4.48579,0.0235 -9.38848,0.35191 -10.89485,0.72999 -2.57349,0.64586 -2.73887,1.08799 -2.73887,7.32219 0,5.63184 0.49881,7.38788 3.2996,11.6163 4.09453,6.18163 5.00988,6.76482 6.79211,4.32746 1.36816,-1.87106 1.62553,-1.87119 7.54947,-0.004 11.19245,3.5281 19.69215,15.03136 19.69215,26.6508 0,10.23887 -11.05371,19.06161 -25.43503,20.30148 -4.30926,0.37152 -8.71771,1.14789 -9.79654,1.72525 -1.91946,1.02727 -4.73292,1.11524 -11.16843,0.34924 z m 199.96706,-1.77464 c -13.2889,-5.23663 -20.277,-11.33128 -25.9554,-22.6369 -10.2994,-20.50569 -4.4638,-42.28885 15.5877,-58.18582 5.5232,-4.37882 6.8991,-4.61175 26.2079,-4.43683 10.5143,0.0953 13.1728,1.54329 24.1002,13.12692 10.5557,11.18955 14.1649,23.53839 8.8286,30.20704 -2.2579,2.82166 -3.295,3.15554 -13.0184,4.19098 -16.5712,1.76466 -36.6337,-1.09837 -39.4326,-5.62725 -2.4074,-3.89517 7.5915,-8.56297 18.3428,-8.56297 5.7502,0 13.1055,-2.27296 13.1055,-4.04987 0,-1.85907 -12.5659,-12.91738 -15.5212,-13.65913 -2.1659,-0.54359 -4.2962,-0.0606 -7.7018,1.74605 -8.7868,4.66142 -13.0437,13.21471 -13.0437,26.20881 0,9.8513 2.24,15.86266 6.7989,18.24591 2.2766,1.19013 7.5644,1.96657 16.6678,2.44741 16.4549,0.86914 21.6752,2.82277 22.2083,8.31132 0.281,2.89178 -0.3882,4.24694 -3.7627,7.62154 -7.4297,7.42976 -21.8471,9.61005 -33.4119,5.05279 z M 448.01489,325.1014 c -2.55795,-4.20621 -3.45886,-9.86601 -3.01758,-18.95737 0.44711,-9.21129 2.36301,-9.65455 9.54114,-2.20738 10.17343,10.55476 11.79091,16.03139 6.34359,21.47872 -4.52023,4.52023 -10.00875,4.38631 -12.86715,-0.31397 z m -184.9961,-22.29141 c -2.21609,-1.74318 -2.79494,-3.01744 -2.54384,-5.6 0.47207,-4.85558 4.69552,-5.12517 9.8189,-0.62678 4.32063,3.79357 4.79487,5.76375 1.77627,7.37926 -3.14426,1.68275 -5.89162,1.33293 -9.05133,-1.15248 z m 379.5807,-68.12025 c -15.87027,-3.33381 -38.16833,-17.57787 -41.0138,-26.19972 -1.53175,-4.64127 -11.91599,-11.80226 -18.55919,-12.79847 -3.73588,-0.56024 -5.61007,-1.71839 -9.56947,-5.9135 -3.21393,-3.40526 -4.92371,-6.16535 -4.92371,-7.94836 0,-3.58685 4.34973,-7.52595 10.86619,-9.84039 4.027,-1.43027 6.3641,-3.2981 10.49086,-8.38443 2.92029,-3.59932 5.31412,-7.20286 5.31962,-8.00787 0.0219,-3.20244 6.61183,-12.69074 12.39249,-17.84297 6.78578,-6.04807 19.19224,-12.90917 28.05777,-15.51669 7.32984,-2.15585 20.17012,-2.1871 28.30244,-0.0689 22.86175,5.95473 40.03729,28.43509 40.03729,52.40317 0,14.83473 -5.00202,27.44204 -15.22276,38.36803 -15.43221,16.49709 -32.62801,24.59646 -46.17773,21.75011 z m 20.07439,-31.19045 c 9.48076,-5.05012 12.73944,-12.26444 12.73944,-28.20352 0,-19.59643 -6.98213,-26.45689 -26.88,-26.41166 -14.45474,0.0329 -23.35964,4.63233 -28.46168,14.70072 -5.81346,11.47231 -4.25226,22.89607 4.44457,32.52244 10.93986,12.10911 24.40506,14.71763 38.15767,7.39202 z m -215.10621,20.22622 c -1.42816,-1.08159 -2.16424,-3.25143 -2.47605,-7.299 -0.4002,-5.19462 -0.12241,-6.14293 2.83064,-9.6636 4.79995,-5.72256 12.92034,-9.42958 20.65592,-9.42958 7.12154,0 11.27063,1.917 13.9439,6.44248 4.15791,7.03879 -0.14434,13.72657 -11.58876,18.01456 -8.19047,3.0688 -20.52039,4.08996 -23.36565,1.93514 z m 62.98437,-13.62227 c -4.52478,-1.35595 -6.798,-3.88754 -8.73949,-9.73278 -1.61394,-4.85914 -1.61307,-5.44239 0.0117,-7.92217 2.31301,-3.53011 4.91232,-4.44673 21.3757,-7.53791 16.60914,-3.11855 26.13115,-3.64399 28.62872,-1.57978 2.50847,2.07322 2.20151,8.39899 -0.64627,13.31784 -5.81536,10.04465 -27.76012,17.31168 -40.6304,13.4548 z"
       id="path4540"
       inkscape:connector-curvature="0" />
    <path
       style="fill:#6c909a;stroke-width:1"
       d="m 554.66665,555.60616 c -13.74262,-2.06741 -20.02757,-3.97242 -24.87676,-7.5403 -2.64065,-1.9429 -7.84364,-5.20979 -11.5622,-7.25976 -4.32746,-2.38564 -10.81355,-7.76077 -18.01982,-14.93334 -9.43319,-9.38906 -12.05488,-12.76273 -16.16848,-20.80611 -7.97264,-15.589 -10.50084,-26.61275 -10.53996,-45.95758 -0.0294,-14.53952 2.14295,-29.08713 6.11876,-40.97575 3.10427,-9.28252 5.30202,-13.14057 12.33603,-21.65538 7.94511,-9.61771 7.50935,-11.5684 -5.88494,-26.34462 -8.14447,-8.98475 -11.65105,-15.04546 -11.79091,-20.37912 -0.12416,-4.73527 1.32807,-6.2454 6.03078,-6.27121 4.41286,-0.0242 9.94184,3.25821 18.89084,11.21506 13.45828,11.96622 21.16248,14.54248 30.00235,10.03271 7.54918,-3.85129 19.18821,-5.51531 39.33098,-5.62309 18.23064,-0.0976 18.92491,-0.0187 29.72222,3.37589 24.26775,7.62959 41.0078,19.80356 54.52115,39.64976 18.82742,27.65064 21.82888,66.14715 7.60341,97.52076 -11.35214,25.03658 -36.67989,45.23077 -67.80052,54.05833 -8.84359,2.50853 -27.5989,3.44537 -37.91293,1.89375 z m 42.8706,-27.44652 c 29.77626,-12.72689 49.9294,-41.85289 49.9294,-72.15965 0,-31.21169 -21.44204,-60.00788 -53.12649,-71.34769 -9.04272,-3.23638 -9.70533,-3.31488 -26.62495,-3.15436 -9.5433,0.0906 -19.74274,0.73829 -22.66545,1.43944 -7.73185,1.85483 -17.1692,8.44057 -28.88717,20.15854 -11.58151,11.58152 -18.29669,21.16475 -20.96615,29.92084 -2.60411,8.54169 -2.57566,37.31757 0.0464,46.98323 4.64396,17.11866 13.18494,29.21278 27.65043,39.15334 9.57502,6.57986 11.33992,7.519 20.04,10.66349 6.49512,2.34755 8.18053,2.48518 26.66666,2.17763 19.60685,-0.3262 19.78592,-0.35077 27.93727,-3.83481 z M 241.06666,480.41952 c -8.30436,-2.22717 -13.10339,-5.93623 -16.84567,-13.01959 -5.81074,-10.99855 -6.72731,-21.63526 -2.86951,-33.3004 3.74759,-11.33184 11.51082,-16.29708 33.37705,-21.34741 14.51776,-3.3531 23.50442,-4.0315 24.0932,-1.8188 7.05059,26.49715 8.14298,39.88474 4.01492,49.20442 -2.6235,5.92295 -14.75115,18.30558 -20.13573,20.55909 -4.41936,1.84953 -14.16999,1.72455 -21.63426,-0.27731 z m 19.94861,-16.55258 c 6.3688,-3.93614 8.85139,-8.29563 8.85139,-15.54323 0,-7.31556 -2.44675,-11.98623 -8.3702,-15.97804 -3.96853,-2.67439 -11.51294,-4.14093 -15.78568,-3.06854 -8.06481,2.02414 -13.93471,14.82887 -11.11387,24.24402 3.03459,10.12856 8.22128,14.13389 17.06219,13.17593 3.18583,-0.34519 7.39612,-1.61876 9.35617,-2.83014 z m 22.75232,-71.82567 c -2.44297,-2.9436 2.80482,-14.69496 8.11652,-18.17532 4.11358,-2.69533 7.84922,-0.76229 7.84922,4.06163 0,3.88437 -5.26037,12.8541 -8.58042,14.63094 -2.80071,1.4989 -5.89174,1.28241 -7.38532,-0.51725 z m -140.8903,-33.58116 c -7.47994,-1.3704 -20.69551,-7.27127 -27.49494,-12.27672 -14.7916,-10.88896 -25.782352,-31.90169 -25.782352,-49.29213 0,-12.84111 6.892462,-30.74676 15.719722,-40.83764 10.93664,-12.50222 19.82012,-17.22311 36.41382,-19.35117 8.10812,-1.03982 10.73502,-0.96037 17.42001,0.5269 21.46986,4.77659 40.60097,19.53029 49.904,38.48542 5.23044,10.65713 9.40654,13.87465 19.5566,15.06759 6.66108,0.78288 11.38584,3.61198 11.38584,6.81763 0,3.33527 -4.80227,6.06346 -12.74934,7.24298 -9.71143,1.44138 -13.02034,3.8978 -17.25334,12.80827 -4.79984,10.10366 -12.8857,21.76694 -17.77521,25.63951 -2.29062,1.8142 -9.66887,5.98625 -16.39612,9.27122 -10.86137,5.3037 -13.11965,6.01834 -20.16201,6.38025 -4.36185,0.22416 -10.11586,0.007 -12.78668,-0.48211 z M 171.2,339.8657 c 10.33478,-4.94121 16.71827,-10.93155 21.20411,-19.89822 4.83138,-9.65738 6.39148,-17.51251 5.71345,-28.76749 -1.19772,-19.8816 -10.24417,-32.54937 -28.26241,-39.57602 -9.25914,-3.61081 -24.82394,-3.41777 -34.70922,0.4305 -9.46763,3.68568 -15.55577,8.15608 -20.86256,15.31897 -8.76618,11.83222 -11.98613,28.01537 -8.05864,40.50189 2.6107,8.3001 10.99227,20.60127 17.64745,25.9002 15.20591,12.10713 30.59986,14.08803 47.32782,6.09017 z m 623.09864,17.6503 c -2.52525,-2.79037 -2.19942,-7.95493 1.377,-21.82567 6.62032,-25.67615 28.01212,-77.06506 36.96767,-88.8064 3.704,-4.85619 6.09167,-4.65653 10.15793,0.8494 9.13215,12.36539 32.97344,72.74364 37.69462,95.46188 2.10961,10.15144 1.13314,15.59994 -2.88005,16.07006 -2.3182,0.27156 -3.52908,-0.60163 -6.65629,-4.8 -5.55847,-7.46241 -13.49437,-24.27918 -19.61485,-41.56538 -6.24946,-17.65047 -13.92225,-33.21446 -15.39195,-31.22203 -1.22515,1.66088 -8.06857,18.00096 -13.53566,32.31915 -3.55547,9.3117 -9.01799,22.30234 -12.13891,28.8681 -7.47585,15.72754 -11.59081,19.50035 -15.97951,14.65089 z m 235.73706,-0.37796 c -3.1086,-4.88192 -4.9364,-20.7854 -7.149,-62.20472 -1.0036,-18.78708 -3.0861,-34.95495 -4.7119,-36.58069 -0.2987,-0.29872 -4.8135,-0.89686 -10.0328,-1.3292 -9.96835,-0.82573 -14.638,-2.40864 -16.57697,-5.61925 -0.92385,-1.52974 -0.74956,-2.23782 0.84189,-3.42016 4.372,-3.2481 13.71058,-4.25069 39.59308,-4.25069 25.8824,0 35.221,1.00259 39.593,4.25069 1.5915,1.18234 1.7658,1.89042 0.842,3.42016 -1.9169,3.17407 -6.5689,4.78715 -16.2945,5.65028 -5.064,0.4494 -9.9822,1.14241 -10.9294,1.54 -4.5576,1.91308 -6.2311,14.37959 -6.2588,46.62585 -0.027,30.84302 -2.1331,50.0653 -5.822,53.1268 -1.2177,1.01068 -1.8346,0.76966 -3.0946,-1.20907 z m 177.7067,1.0308 c -3.1454,-3.87477 -5.5916,-29.21861 -5.5889,-57.90218 0,-33.49379 2.8935,-57.06667 6.9974,-57.06667 4.82,0 7.228,19.13266 7.1823,57.06667 -0.051,42.84584 -3.2598,64.46955 -8.5908,57.90218 z m -280.80909,-0.87719 c -10.32742,-1.66235 -16.64592,-6.32459 -15.33988,-11.31888 0.6437,-2.46153 4.50752,-4.64536 8.19007,-4.62903 2.98115,0.0132 12.57458,4.44911 14.40287,6.65973 0.76251,0.92197 1.48251,2.96427 1.6,4.53845 0.30291,4.05876 -2.80079,5.72391 -8.85306,4.74973 z m 198.39999,-1.57538 c -2.64,-1.5445 -5.76,-3.67735 -6.9333,-4.73964 -1.1734,-1.06229 -3.1274,-2.23169 -4.3424,-2.59865 -4.0486,-1.22279 -8.4293,-6.69713 -14.2895,-17.85708 -5.411,-10.30428 -5.8081,-11.56747 -5.8531,-18.61901 -0.043,-6.74477 0.4117,-8.47913 4.1956,-16 2.9183,-5.80062 6.583,-10.82875 11.7333,-16.09854 8.2524,-8.44398 12.1745,-10.26994 15.5324,-7.23112 3.0866,2.79334 2.563,6.26006 -1.8051,11.95187 -7.1799,9.35551 -8.3722,13.19647 -8.3635,26.94256 0.011,11.05475 0.2774,12.79359 2.7395,17.6 3.3104,6.46277 7.681,9.60042 15.6887,11.26282 5.609,1.16442 8.228,1.07649 21.8307,-0.73297 l 5.0667,-0.67396 v 4.31497 c 0,3.39376 -0.6703,4.94765 -3.1398,7.27848 -4.2769,4.03671 -11.9901,6.88251 -20.3188,7.49663 -6.0983,0.44967 -7.5243,0.17078 -11.7414,-2.29636 z m 135.6288,-1.03005 c -2.2609,-2.04257 -5.701,-6.72257 -7.6448,-10.4 -7.7995,-14.75592 -18.5714,-28.22337 -24.558,-30.70308 -1.7377,-0.71975 -3.1593,-2.1144 -3.1593,-3.09922 0,-0.98483 -0.596,-2.38659 -1.3244,-3.11501 -1.743,-1.74303 0.6214,-3.32981 4.9956,-3.35259 4.0048,-0.0208 16.3779,-7.33877 20.6659,-12.22254 3.676,-4.18673 5.0122,-9.25897 4.1441,-15.73119 -0.7849,-5.85171 -6.3872,-11.43879 -16.461,-16.41637 -13.3461,-6.59442 -16.6563,-10.65062 -12.0754,-14.79635 1.7139,-1.551 3.5374,-1.80426 10.4,-1.44441 11.0203,0.57786 23.2935,6.19044 28.1265,12.86235 6.4953,8.96636 8.5801,24.40335 4.8234,35.71379 -1.0565,3.18093 -3.9616,7.87692 -7.0707,11.42993 -8.406,9.60593 -8.2873,11.65927 1.6983,29.38846 7.618,13.5257 11.4699,22.14652 10.7422,24.04269 -0.3871,1.00869 -2.1114,1.55731 -4.8946,1.55731 -3.4084,0 -5.1472,-0.76804 -8.4078,-3.71377 z m -954.36558,0.007 c -2.30149,-2.30149 -2.71235,-3.4739 -2.18352,-6.23087 1.05123,-5.48055 8.47521,-10.58265 12.91794,-8.87781 3.7023,1.42071 -0.17157,12.8711 -5.54857,16.40046 -2.15363,1.41361 -2.58888,1.30519 -5.18585,-1.29178 z m 642.20346,-0.56037 c -0.36258,-0.58666 -1.83092,-1.06666 -3.26296,-1.06666 -2.62253,0 -3.62762,-2.44128 -1.53704,-3.73334 1.39674,-0.86323 1.39291,-25.18853 -0.005,-32.56039 -0.58949,-3.10836 -0.92355,-5.79982 -0.74234,-5.98101 0.18119,-0.1812 2.85121,0.0692 5.93336,0.55641 6.02489,0.95241 10.31308,4.18658 16.27987,12.27837 3.5353,4.79434 3.8495,8.5722 1.29222,15.53763 -2.48814,6.77712 -6.18397,11.4328 -11.04394,13.91217 -4.69403,2.39472 -5.96692,2.58928 -6.91404,1.05682 z M 830.93331,330.94273 c -4.41156,-1.71545 -5.40476,-6.59934 -1.98919,-9.78143 5.98226,-5.57331 19.05586,-2.68251 19.05586,4.21358 0,3.97696 -3.7571,6.3661 -9.86667,6.27423 -3.08,-0.0463 -6.32,-0.36418 -7.2,-0.70638 z m -382.4823,-5.052 c -2.46624,-3.76396 -3.59628,-9.51693 -3.62557,-18.45754 -0.0346,-10.53871 1.42235,-10.96701 9.64087,-2.83423 10.1476,10.04171 11.64632,15.75641 5.60144,21.35861 -3.81274,3.53353 -9.27829,3.50209 -11.61674,-0.0669 z m 478.55596,-8.62882 c -5.88657,-2.55414 -12.49494,-8.60605 -14.96182,-13.70194 -3.23332,-6.67915 -3.17537,-16.17713 0.13531,-22.17399 3.71361,-6.72675 8.54149,-9.55085 15.66914,-9.16579 7.1011,0.38363 8.71937,2.1832 6.78176,7.54157 -1.88503,5.21296 -1.68811,23.24648 0.29538,27.04963 2.31941,4.44727 2.02271,8.5095 -0.76411,10.46145 -2.82715,1.98022 -2.56571,1.98062 -7.15566,-0.011 z m 209.81623,0.56989 c -12.7663,-1.51384 -18.6227,-4.51162 -15.6982,-8.03548 2.6328,-3.17236 7.6856,-4.91487 15.7992,-5.44848 15.2751,-1.00461 19.0217,-3.64949 15.3149,-10.81145 -1.4188,-2.74115 -3.9506,-5.00505 -8.3382,-7.45587 -7.0298,-3.92658 -8.9676,-5.94034 -8.9676,-9.31908 0,-3.52549 3.3202,-5.82811 8.4036,-5.82811 6.177,0 9.477,1.96637 16.9058,10.07358 14.7426,16.08887 18.7363,32.5043 8.6574,35.58514 -5.0247,1.53595 -23.5432,2.25167 -32.0769,1.23975 z M 264.79177,303.88684 c -5.21289,-1.92836 -5.87371,-10.55352 -0.80857,-10.55352 3.18368,0 10.37085,6.06612 9.92572,8.37752 -0.38641,2.00647 -5.97181,3.33954 -9.11715,2.176 z M 949.86664,283.99 c -6.68983,-0.90972 -9.25048,-7.53952 -4.67802,-12.11198 3.22488,-3.22489 12.72785,-2.44638 16.52826,1.35404 5.6411,5.64109 -1.53971,12.16001 -11.85024,10.75794 z M 638.93332,229.32048 c -12.07435,-2.08429 -20.67508,-7.13553 -34.79378,-20.43448 -8.50766,-8.01369 -17.60879,-13.65155 -22.07634,-13.67558 -3.41784,-0.0183 -5.86046,-2.0307 -7.1284,-5.8726 -1.94172,-5.88346 -0.53262,-9.06757 7.80874,-17.64526 4.25697,-4.37758 11.86507,-13.51394 16.90689,-20.30303 10.33881,-13.9218 16.65523,-19.88188 25.94955,-24.4856 8.07668,-4.00058 16.79653,-5.60987 27.71187,-5.11434 7.92696,0.35987 9.25936,0.77815 18.1548,5.69939 19.38403,10.72385 30.49093,26.28949 31.28328,43.84163 0.49508,10.96674 -1.11432,18.71245 -5.85843,28.19535 -4.47942,8.95383 -15.35365,20.41225 -23.52577,24.78963 -9.56206,5.1219 -22.69567,7.03092 -34.43241,5.00489 z m 23.09574,-24.89322 c 16.0714,-8.22904 23.46896,-26.67946 15.89424,-39.64219 -4.18494,-7.16175 -13.0114,-15.60739 -19.89724,-19.03875 -11.87864,-5.91937 -21.18229,-3.2628 -32.66934,9.32842 -13.02951,14.28195 -11.63881,37.23229 2.8827,47.57253 8.12083,5.78255 24.30732,6.63522 33.78964,1.77999 z m -214.31227,16.37892 c -3.94645,-3.10429 -4.05667,-9.1314 -0.24224,-13.24723 8.20463,-8.85295 28.3891,-10.49276 31.3291,-2.54521 2.09628,5.66683 -3.13591,11.13629 -14.48301,15.13979 -8.50656,3.00129 -13.37477,3.19264 -16.60385,0.65265 z m 61.38986,-14.55704 c -8.49105,-7.16605 1.21935,-17.69774 18.93653,-20.53816 3.78958,-0.60754 8.39501,-1.40744 10.23431,-1.77756 4.18009,-0.84114 7.36316,0.8075 10.04225,5.20132 2.62935,4.31221 2.64909,8.41981 0.0517,10.77035 -6.8228,6.17456 -34.22052,10.60122 -39.26486,6.34405 z"
       id="path4538"
       inkscape:connector-curvature="0" />
    <path
       style="fill:#56a259;stroke-width:1"
       d="m 552.53332,554.70883 c -15.44432,-2.2638 -15.49798,-2.28149 -24.21184,-7.98282 -3.63652,-2.37932 -9.56274,-6.1857 -13.16939,-8.45861 -14.9549,-9.42465 -29.55441,-27.18789 -35.47614,-43.16388 -7.41313,-19.99954 -7.99999,-44.80895 -1.65672,-70.03687 2.83803,-11.28713 7.04634,-19.75192 14.22102,-28.60481 8.29124,-10.23057 8.26571,-10.36608 -4.78443,-25.40554 -9.11902,-10.50908 -12.78916,-16.77842 -12.78916,-21.84641 0,-9.38695 8.91549,-7.22266 24.53333,5.9556 15.97305,13.47799 18.88017,14.21798 35.44874,9.02317 14.47344,-4.5379 27.16318,-5.92599 43.69021,-4.77915 14.38389,0.99814 30.63264,5.94899 42.74874,13.02517 8.99149,5.25131 24.88374,20.18018 30.91245,29.03856 5.53132,8.12751 11.81851,21.76263 14.07596,30.52675 2.5059,9.72864 3.27984,26.6763 1.70886,37.42026 -5.51275,37.70196 -27.46924,65.67594 -62.27247,79.3391 -18.64118,7.31822 -32.79632,8.90782 -52.97916,5.94948 z m 31.94543,-22.47249 c 9.63106,-1.24988 24.27238,-8.04152 33.12123,-15.36389 21.12936,-17.4844 33.20742,-45.31711 29.87177,-68.83655 -4.0435,-28.51033 -25.35996,-55.38007 -50.94586,-64.21809 -6.65328,-2.29821 -8.83213,-2.47938 -29.05924,-2.41639 l -21.86666,0.0681 -7.46667,3.63907 c -6.04962,2.94844 -10.11499,6.27569 -21.42115,17.53191 -20.62239,20.53128 -23.89948,27.78701 -23.8592,52.82616 0.0232,14.47965 1.71396,26.20834 5.02017,34.82648 6.27116,16.34671 25.46724,33.25519 45.97136,40.49292 5.93747,2.09585 9.16776,2.50058 19.88882,2.49183 7.04,-0.005 16.37544,-0.47443 20.74543,-1.04155 z M 238.29122,478.00867 c -4.6911,-2.26857 -9.78842,-5.62108 -11.32737,-7.45004 -4.24006,-5.03901 -7.4474,-14.58002 -7.58339,-22.55864 -0.33337,-19.55834 10.68315,-29.31166 40.92203,-36.22978 5.59304,-1.27959 12.07304,-2.17135 14.4,-1.98171 l 4.23084,0.34482 -0.35156,7.07401 c -0.28581,5.75111 0.26275,8.83542 2.93334,16.49302 1.80669,5.18046 3.28488,11.37071 3.28488,13.75608 0,9.56803 -12.02015,27.79232 -21.53125,32.64453 -6.7776,3.45767 -14.9095,2.77649 -24.97752,-2.09229 z m 18.83096,-11.9869 c 7.77418,-1.66727 11.52352,-5.36923 12.62852,-12.46893 2.24961,-14.45387 -3.84285,-23.18738 -16.95999,-24.31206 -5.59532,-0.47976 -7.63014,-0.20205 -10.60353,1.44716 -9.46984,5.25252 -11.3502,21.99605 -3.51586,31.30665 4.45401,5.29328 8.46505,6.16875 18.45086,4.02718 z m 26.75743,-74.25584 c -1.37661,-2.45985 2.03024,-11.38093 5.88128,-15.40054 3.28926,-3.43325 7.74579,-4.08205 8.00499,-1.1654 0.5172,5.81959 -3.75541,16.43592 -7.13698,17.73356 -3.0586,1.17369 -5.69419,0.71775 -6.74929,-1.16762 z m 511.28758,-33.79135 c -4.54377,-3.32248 -0.60633,-19.55864 14.38242,-59.30639 14.56529,-38.62481 23.00153,-55.4682 27.78195,-55.4682 2.94626,0 10.08075,11.19129 16.3201,25.6 8.55097,19.74703 24.38183,67.55711 26.61383,80.37526 1.18164,6.78601 1.1268,7.41525 -0.76697,8.8 -1.12179,0.82027 -2.40918,1.49141 -2.86086,1.49141 -3.38667,0 -14.14978,-20.60817 -22.84077,-43.73334 -7.72663,-20.55911 -14.92929,-34.13333 -18.11162,-34.13333 -2.55294,0 -4.48374,4.16617 -14.39222,31.05446 -10.72392,29.10111 -15.64882,40.19826 -19.58831,44.13774 -3.09078,3.09079 -3.76172,3.21213 -6.53755,1.18239 z m 412.46401,-0.33367 c -6.3609,-11.88565 -7.1658,-92.44706 -1.1092,-111.03281 1.4894,-4.57051 4.255,-4.13653 5.9145,0.92807 5.0027,15.2691 5.1277,85.50698 0.1873,105.23156 -1.4071,5.61734 -3.5006,7.66084 -4.9926,4.87318 z M 137.54195,355.87092 c -5.01858,-1.35122 -12.10853,-4.04713 -15.75544,-5.99091 -12.3238,-6.56852 -24.184279,-21.9691 -29.583342,-38.41335 -3.116747,-9.49287 -2.570064,-20.87052 1.588815,-33.06667 1.900503,-5.57333 4.254786,-11.41402 5.231737,-12.97932 2.78123,-4.45614 19.91759,-19.62541 23.84208,-21.10523 1.94381,-0.73296 6.4142,-2.57086 9.9342,-4.08423 16.92319,-7.27584 36.65084,-3.03865 56.69597,12.17739 8.96456,6.80491 15.01482,14.26144 19.36098,23.8611 1.7257,3.81166 4.2854,7.98738 5.68823,9.27938 3.3256,3.06287 9.60987,5.65091 13.72148,5.65091 6.97404,0 13.43334,4.91971 11.20122,8.53137 -1.26376,2.0448 -6.40633,3.99748 -12.4692,4.73467 -8.64263,1.05086 -13.6059,4.94391 -17.90594,14.04498 -8.25478,17.47127 -16.26479,25.65377 -33.09274,33.80537 -10.42536,5.05014 -11.8271,5.44565 -20.26667,5.71835 -6.82843,0.22064 -11.31923,-0.31352 -18.19138,-2.16381 z m 30.3696,-13.66764 c 13.42787,-4.42387 23.0327,-14.01412 27.96704,-27.92456 4.00038,-11.27754 3.70894,-27.64048 -0.70232,-39.43061 -8.38219,-22.40343 -39.83962,-33.56324 -64.17504,-22.76668 -7.4208,3.29229 -17.67394,14.22515 -22.39468,23.87932 -3.35545,6.86207 -3.53989,7.85056 -3.53989,18.97257 0,11.33343 0.13517,12.01768 3.96575,20.0761 6.83151,14.37145 21.65987,26.75541 35.30556,29.48557 6.00341,1.20113 15.88859,0.24014 23.57358,-2.29171 z M 1029.31,355.67212 c -1.8371,-4.83215 -4.1613,-26.95877 -5.844,-55.63567 -1.622,-27.64342 -2.6996,-36.91294 -4.7328,-40.71204 -0.8437,-1.57658 -2.7808,-2.05983 -10.0828,-2.51538 -13.38778,-0.83525 -22.06111,-5.954 -15.30472,-9.03243 6.69982,-3.05263 15.86382,-4.00122 38.65432,-4.00122 23.798,0 33.5644,1.1004 38.6847,4.3587 1.92,1.22178 2.1992,1.94756 1.3558,3.52346 -1.479,2.76374 -6.5917,4.3272 -16.5739,5.06836 -15.8887,1.17972 -15.546,0.25038 -16.6431,45.14076 -0.8118,33.21665 -1.7989,45.51404 -4.2595,53.06666 -1.3536,4.15457 -3.8233,4.50185 -5.254,0.7388 z m 98.69,1.24643 c -1.76,-0.76886 -4.64,-2.60448 -6.4,-4.07915 -1.76,-1.47466 -5.12,-3.66009 -7.4667,-4.85651 -6.0251,-3.07181 -8.0854,-5.68393 -14.4999,-18.3829 -4.9467,-9.79291 -5.6643,-12.0201 -5.712,-17.72768 -0.047,-5.64619 0.5704,-7.76057 4.5746,-15.65761 5.2016,-10.25873 14.1716,-20.88966 19.9323,-23.62335 3.5272,-1.67375 4.0415,-1.68286 6.436,-0.11399 3.5292,2.31246 3.3024,5.81741 -0.7018,10.84263 -8.5402,10.71806 -11.155,20.37425 -9.4021,34.72262 2.4811,20.30958 12.3844,26.73537 35.1497,22.80675 5.4229,-0.93586 10.0598,-1.5017 10.3041,-1.25742 0.2442,0.24427 -0.2662,2.14414 -1.1343,4.22192 -1.4032,3.3582 -6.1743,7.11946 -9.0311,7.11946 -0.5447,0 -3.7802,1.68 -7.1902,3.73334 -6.6324,3.9938 -9.7795,4.47076 -14.8586,2.25189 z m -822.31619,-4.01291 c -1.92384,-4.57545 -0.68132,-8.40276 3.68611,-11.35431 4.46884,-3.02008 8.89255,-2.78372 9.36019,0.50011 0.35737,2.5094 -2.94201,9.74139 -5.70455,12.50393 -2.77555,2.77555 -5.76335,2.10418 -7.34175,-1.64973 z m 955.29929,-1.59139 c -2.7408,-2.85224 -8.5444,-10.46478 -12.8971,-16.91675 -4.3526,-6.45196 -11.4326,-15.18194 -15.7333,-19.39993 -4.3007,-4.218 -7.8194,-8.12269 -7.8194,-8.6771 0,-0.5544 2.6364,-1.3374 5.8586,-1.73998 6.7341,-0.84137 17.0505,-7.03683 21.0349,-12.63241 2.9162,-4.09545 3.8981,-15.47774 1.8733,-21.71736 -2.389,-7.36219 -4.6397,-9.4549 -13.5322,-12.58257 -11.9785,-4.21304 -17.5957,-10.40529 -12.1047,-13.34397 1.1347,-0.6073 4.9399,-1.10419 8.4558,-1.10419 5.2486,0 7.6949,0.67855 13.6701,3.79168 9.38,4.88715 12.496,7.96162 16.6703,16.44886 3.0737,6.24932 3.4056,7.86888 3.3914,16.54348 -0.019,11.48731 -1.907,16.43866 -9.5514,25.04575 -4.8978,5.51465 -5.0535,5.8946 -4.6093,11.25057 0.3479,4.19548 1.6819,7.59067 5.4868,13.96475 7.3779,12.35957 10.2871,24.44819 6.2062,25.78939 -0.7793,0.25612 -3.6593,-1.86798 -6.4,-4.72022 z m -344.18312,1.44143 c -10.12139,-5.71516 -2.16163,-14.99325 8.31963,-9.69759 10.59718,5.35423 11.04654,12.1614 0.80037,12.12435 -3.04098,-0.011 -6.44662,-0.91721 -9.12,-2.42676 z m 26.82128,-0.4233 c -0.38249,-0.38248 -0.0173,-1.73042 0.81158,-2.99542 1.87347,-2.85928 1.58756,-31.96177 -0.34957,-35.58132 -1.16762,-2.18174 -1.00225,-2.28898 3.52959,-2.28898 3.72526,0 5.73382,0.75051 9.27763,3.46666 5.66571,4.34248 11.64282,12.91973 11.64282,16.70764 0,5.87103 -10.61949,18.58029 -16.5529,19.81028 -1.4559,0.30182 -3.77584,0.78001 -5.15541,1.06266 -1.37957,0.28265 -2.82126,0.20097 -3.20374,-0.18152 z M 830.23693,330.16595 c -7.47025,-5.23236 0.89824,-13.83872 10.79827,-11.10519 6.27598,1.73288 8.39183,7.79443 3.95807,11.33923 -2.30047,1.83923 -12.01634,1.68514 -14.75634,-0.23404 z m -381.61934,-4.03263 c -4.1683,-6.39266 -5.35473,-27.46666 -1.54632,-27.46666 1.77659,0 10.82247,8.98559 13.90147,13.80883 3.90509,6.1173 3.81342,8.01832 -0.59942,12.43117 -4.42529,4.42529 -9.33597,4.9377 -11.75573,1.22666 z m 476.71572,-10.07215 c -10.2517,-5.51051 -15.43748,-13.41592 -15.45624,-23.56211 -0.0191,-10.34401 4.69655,-16.71852 14.37185,-19.42744 10.95795,-3.06803 13.68149,2.30349 6.54273,12.90393 -5.19144,7.70884 -5.23872,12.12298 -0.17318,16.16479 5.31429,4.24027 7.11554,12.31512 3.32598,14.90999 -1.82574,1.25015 -5.15706,0.86748 -8.61114,-0.98916 z m 203.93629,0.6788 c -6.3162,-1.55397 -8.3733,-2.99686 -8.001,-5.61215 0.5178,-3.63777 6.8379,-6.04167 18.4627,-7.02251 8.2213,-0.69366 10.7497,-1.31231 12.4945,-3.05711 3.0795,-3.07939 1.994,-6.19337 -5.0243,-14.41478 -6.6383,-7.77629 -7.4741,-11.39873 -3.2658,-14.15606 2.3937,-1.56842 2.9083,-1.55995 6.4182,0.1056 8.5562,4.06017 19.3732,20.65824 22.1781,34.03088 1.1737,5.59515 1.1064,6.08865 -1.1364,8.33343 -2.2596,2.26161 -3.3146,2.39668 -20.2231,2.58929 -9.8116,0.11176 -19.6679,-0.24669 -21.9029,-0.79657 z M 263.31904,302.91451 c -4.00806,-2.34072 -3.17539,-9.58119 1.10186,-9.58119 2.25709,0 9.71243,6.11288 9.71243,7.96355 0,2.61642 -7.24765,3.70056 -10.81429,1.61764 z m 681.27475,-21.55186 c -2.44972,-3.49747 -2.02756,-6.78574 1.19679,-9.32202 5.15713,-4.0566 17.4094,-0.71903 17.4094,4.7424 0,4.48291 -3.83663,6.9503 -10.80732,6.9503 -5.13404,0 -6.41007,-0.38789 -7.79887,-2.37068 z M 641.59998,229.23996 c -13.2449,-1.71814 -21.56194,-6.13757 -34.51906,-18.34238 -11.12528,-10.47932 -16.86243,-14.18519 -24.37498,-15.74479 -5.20445,-1.08044 -5.99518,-1.61072 -7.39396,-4.95847 -2.36451,-5.65905 -0.99785,-9.13092 6.74689,-17.13986 3.82288,-3.95329 10.93584,-12.50043 15.80657,-18.99364 10.74306,-14.32168 17.53921,-20.60737 27.58016,-25.50867 13.00339,-6.34737 25.60799,-8.46235 34.95682,-5.86554 4.60186,1.27825 21.60152,12.31659 25.65089,16.65582 4.87289,5.22169 14.74427,20.95602 15.96502,25.44719 1.36374,5.01724 0.53803,17.01255 -1.66452,24.1809 -5.89148,19.17417 -21.69802,35.47944 -37.95383,39.15135 -7.44165,1.68094 -13.81858,2.02373 -20.8,1.11809 z m 16.23972,-22.74897 c 13.35157,-3.55452 21.38667,-13.02052 24.31866,-28.64937 1.11053,-5.91964 -3.29596,-14.40007 -12.00937,-23.11245 -9.6063,-9.60514 -14.79421,-12.27345 -23.74901,-12.21487 -8.55767,0.056 -13.63235,2.46658 -20.381,9.68144 -6.83911,7.31157 -8.95233,13.43418 -8.95233,25.93759 0,9.25383 0.27647,10.63253 3.18542,15.88502 1.84948,3.33949 4.89289,6.88163 7.25676,8.44596 7.91882,5.24044 19.83131,6.82192 30.33087,4.02668 z m -211.37923,13.00499 c -2.61507,-3.73354 -2.09418,-8.54905 1.27285,-11.76688 10.07997,-9.6333 31.2,-9.66329 31.2,-0.0443 0,4.12979 -6.05427,9.1514 -14.29481,11.85657 -9.48742,3.11451 -15.97611,3.09831 -18.17804,-0.0454 z m 64.47285,-12.17643 c -2.67858,-1.05741 -4.26667,-3.81656 -4.26667,-7.41293 0,-6.55082 9.00533,-11.82344 24.27472,-14.21285 3.67111,-0.57448 7.12998,-1.32585 7.68638,-1.66973 2.14797,-1.32752 8.21465,2.4013 9.98843,6.13926 3.89069,8.19902 2.29414,9.82699 -13.68286,13.95204 -11.27815,2.91188 -21.33821,4.25498 -24,3.20421 z"
       id="path4536"
       inkscape:connector-curvature="0" />
    <path
       style="fill:#486f8a;stroke-width:1"
       d="m 565.24443,556.3652 c -0.24444,-0.23913 -5.24444,-0.96916 -11.11111,-1.6223 -14.60813,-1.62635 -19.32515,-3.03454 -23.56769,-7.03578 -2.65367,-2.50273 -3.63231,-4.34044 -3.63231,-6.82084 0,-5.81895 3.887,-6.69998 33.6,-7.6159 14.08,-0.43402 28.24,-1.37754 31.46667,-2.09671 8.38291,-1.86841 16.50938,-6.29836 24.85197,-13.54746 17.71994,-15.39731 27.78286,-32.9437 30.57073,-53.3052 4.32583,-31.59397 -18.00541,-67.6548 -49.86829,-80.5281 -5.87057,-2.37184 -7.19124,-2.45959 -37.02108,-2.45959 -17.01333,0 -31.53333,-0.38833 -32.26667,-0.86295 -2.09305,-1.35465 -1.56859,-7.61693 0.90084,-10.75629 2.31667,-2.94518 8.66806,-6.63283 14.2688,-8.28455 6.36254,-1.87639 23.05245,-2.84233 34.90265,-2.02002 22.55151,1.56491 42.91856,10.40498 58.69144,25.4743 36.04189,34.4342 41.68113,87.90845 13.63031,129.24951 -8.5717,12.63289 -23.97202,25.29521 -39.12299,32.16735 -10.56774,4.79329 -44.20591,12.1065 -46.29327,10.06453 z M 238.29122,478.00867 c -4.6911,-2.26857 -9.78842,-5.62108 -11.32737,-7.45004 -4.24006,-5.03901 -7.4474,-14.58002 -7.58339,-22.55864 -0.33337,-19.55834 10.68315,-29.31166 40.92203,-36.22978 5.59304,-1.27959 12.07304,-2.17135 14.4,-1.98171 l 4.23084,0.34482 -0.35156,7.07401 c -0.28581,5.75111 0.26275,8.83542 2.93334,16.49302 1.80669,5.18046 3.28488,11.37071 3.28488,13.75608 0,9.56803 -12.02015,27.79232 -21.53125,32.64453 -6.7776,3.45767 -14.9095,2.77649 -24.97752,-2.09229 z m 18.83096,-11.9869 c 7.77418,-1.66727 11.52352,-5.36923 12.62852,-12.46893 2.24961,-14.45387 -3.84285,-23.18738 -16.95999,-24.31206 -5.59532,-0.47976 -7.63014,-0.20205 -10.60353,1.44716 -9.46984,5.25252 -11.3502,21.99605 -3.51586,31.30665 4.45401,5.29328 8.46505,6.16875 18.45086,4.02718 z m 26.69686,-74.39494 c -1.39149,-2.60006 1.76254,-8.63865 5.65501,-10.82684 2.52992,-1.42222 2.95989,-1.42222 3.86972,0 1.76468,2.75851 1.19563,8.39393 -1.07711,10.66667 -2.67995,2.67994 -7.05468,2.76289 -8.44762,0.16017 z m 511.34815,-33.65225 c -4.54377,-3.32248 -0.60633,-19.55864 14.38242,-59.30639 14.56529,-38.62481 23.00153,-55.4682 27.78195,-55.4682 2.94626,0 10.08075,11.19129 16.3201,25.6 8.55097,19.74703 24.38183,67.55711 26.61383,80.37526 1.18164,6.78601 1.1268,7.41525 -0.76697,8.8 -1.12179,0.82027 -2.40918,1.49141 -2.86086,1.49141 -3.38667,0 -14.14978,-20.60817 -22.84077,-43.73334 -7.72663,-20.55911 -14.92929,-34.13333 -18.11162,-34.13333 -2.55294,0 -4.48374,4.16617 -14.39222,31.05446 -10.72392,29.10111 -15.64882,40.19826 -19.58831,44.13774 -3.09078,3.09079 -3.76172,3.21213 -6.53755,1.18239 z m 412.46401,-0.33367 c -6.3609,-11.88565 -7.1658,-92.44706 -1.1092,-111.03281 1.4894,-4.57051 4.255,-4.13653 5.9145,0.92807 5.0027,15.2691 5.1277,85.50698 0.1873,105.23156 -1.4071,5.61734 -3.5006,7.66084 -4.9926,4.87318 z M 137.54195,355.87092 c -5.01858,-1.35122 -12.10853,-4.04713 -15.75544,-5.99091 -12.3238,-6.56852 -24.184279,-21.9691 -29.583342,-38.41335 -3.075521,-9.3673 -2.516922,-20.80598 1.614788,-33.06667 1.878148,-5.57333 4.21744,-11.4074 5.198428,-12.9646 2.384126,-3.78451 18.460416,-18.50321 22.480446,-20.58204 3.6509,-1.88796 11.36576,-2.21131 12.41094,-0.52018 0.38519,0.62325 -4.30691,6.26789 -10.42689,12.54365 -8.32049,8.5323 -11.97476,13.18633 -14.48724,18.45076 -10.888882,22.8156 -3.00119,48.04514 19.45077,62.21509 9.13276,5.7639 14.14588,7.30771 23.55559,7.25399 19.87771,-0.11346 32.8725,-8.69642 46.18675,-30.50605 l 5.65342,-9.26067 2.61324,3.10568 c 3.87369,4.60361 3.36443,8.55037 -2.45341,19.01377 -6.72464,12.09428 -13.32708,18.03242 -27.83932,25.03831 -10.53948,5.08801 -12.01607,5.50815 -20.42735,5.81223 -6.90342,0.24956 -11.24375,-0.2584 -18.19138,-2.12901 z m 891.76805,-0.1988 c -1.8371,-4.83215 -4.1613,-26.95877 -5.844,-55.63567 -1.622,-27.64342 -2.6996,-36.91294 -4.7328,-40.71204 -0.8437,-1.57658 -2.7808,-2.05983 -10.0828,-2.51538 -13.38778,-0.83525 -22.06111,-5.954 -15.30472,-9.03243 6.69982,-3.05263 15.86382,-4.00122 38.65432,-4.00122 23.798,0 33.5644,1.1004 38.6847,4.3587 1.92,1.22178 2.1992,1.94756 1.3558,3.52346 -1.479,2.76374 -6.5917,4.3272 -16.5739,5.06836 -15.8887,1.17972 -15.546,0.25038 -16.6431,45.14076 -0.8118,33.21665 -1.7989,45.51404 -4.2595,53.06666 -1.3536,4.15457 -3.8233,4.50185 -5.254,0.7388 z m 98.69,1.24643 c -1.76,-0.76886 -4.64,-2.60448 -6.4,-4.07915 -1.76,-1.47466 -5.12,-3.66009 -7.4667,-4.85651 -6.0251,-3.07181 -8.0854,-5.68393 -14.4999,-18.3829 -4.9467,-9.79291 -5.6643,-12.0201 -5.712,-17.72768 -0.047,-5.64619 0.5704,-7.76057 4.5746,-15.65761 5.2016,-10.25873 14.1716,-20.88966 19.9323,-23.62335 3.5272,-1.67375 4.0415,-1.68286 6.436,-0.11399 3.5292,2.31246 3.3024,5.81741 -0.7018,10.84263 -8.5402,10.71806 -11.155,20.37425 -9.4021,34.72262 2.4811,20.30958 12.3844,26.73537 35.1497,22.80675 5.4229,-0.93586 10.0598,-1.5017 10.3041,-1.25742 0.2442,0.24427 -0.2662,2.14414 -1.1343,4.22192 -1.4032,3.3582 -6.1743,7.11946 -9.0311,7.11946 -0.5447,0 -3.7802,1.68 -7.1902,3.73334 -6.6324,3.9938 -9.7795,4.47076 -14.8586,2.25189 z m 132.9831,-5.6043 c -2.7408,-2.85224 -8.5444,-10.46478 -12.8971,-16.91675 -4.3526,-6.45196 -11.4326,-15.18194 -15.7333,-19.39993 -4.3007,-4.218 -7.8194,-8.12269 -7.8194,-8.6771 0,-0.5544 2.6364,-1.3374 5.8586,-1.73998 6.7341,-0.84137 17.0505,-7.03683 21.0349,-12.63241 2.9162,-4.09545 3.8981,-15.47774 1.8733,-21.71736 -2.389,-7.36219 -4.6397,-9.4549 -13.5322,-12.58257 -11.9785,-4.21304 -17.5957,-10.40529 -12.1047,-13.34397 1.1347,-0.6073 4.9399,-1.10419 8.4558,-1.10419 5.2486,0 7.6949,0.67855 13.6701,3.79168 9.38,4.88715 12.496,7.96162 16.6703,16.44886 3.0737,6.24932 3.4056,7.86888 3.3914,16.54348 -0.019,11.48731 -1.907,16.43866 -9.5514,25.04575 -4.8978,5.51465 -5.0535,5.8946 -4.6093,11.25057 0.3479,4.19548 1.6819,7.59067 5.4868,13.96475 7.3779,12.35957 10.2871,24.44819 6.2062,25.78939 -0.7793,0.25612 -3.6593,-1.86798 -6.4,-4.72022 z m -344.18312,1.44143 c -10.12139,-5.71516 -2.16163,-14.99325 8.31963,-9.69759 10.59718,5.35423 11.04654,12.1614 0.80037,12.12435 -3.04098,-0.011 -6.44662,-0.91721 -9.12,-2.42676 z m 26.82128,-0.4233 c -0.38249,-0.38248 -0.0173,-1.73042 0.81158,-2.99542 1.87347,-2.85928 1.58756,-31.96177 -0.34957,-35.58132 -1.16762,-2.18174 -1.00225,-2.28898 3.52959,-2.28898 3.72526,0 5.73382,0.75051 9.27763,3.46666 5.66571,4.34248 11.64282,12.91973 11.64282,16.70764 0,5.87103 -10.61949,18.58029 -16.5529,19.81028 -1.4559,0.30182 -3.77584,0.78001 -5.15541,1.06266 -1.37957,0.28265 -2.82126,0.20097 -3.20374,-0.18152 z M 830.23693,330.16595 c -7.47025,-5.23236 0.89824,-13.83872 10.79827,-11.10519 6.27598,1.73288 8.39183,7.79443 3.95807,11.33923 -2.30047,1.83923 -12.01634,1.68514 -14.75634,-0.23404 z m 95.09638,-14.10478 c -10.2517,-5.51051 -15.43748,-13.41592 -15.45624,-23.56211 -0.0191,-10.34401 4.69655,-16.71852 14.37185,-19.42744 10.95795,-3.06803 13.68149,2.30349 6.54273,12.90393 -5.19144,7.70884 -5.23872,12.12298 -0.17318,16.16479 5.31429,4.24027 7.11554,12.31512 3.32598,14.90999 -1.82574,1.25015 -5.15706,0.86748 -8.61114,-0.98916 z m 203.93629,0.6788 c -6.3162,-1.55397 -8.3733,-2.99686 -8.001,-5.61215 0.5178,-3.63777 6.8379,-6.04167 18.4627,-7.02251 8.2213,-0.69366 10.7497,-1.31231 12.4945,-3.05711 3.0795,-3.07939 1.994,-6.19337 -5.0243,-14.41478 -6.6383,-7.77629 -7.4741,-11.39873 -3.2658,-14.15606 2.3937,-1.56842 2.9083,-1.55995 6.4182,0.1056 8.5562,4.06017 19.3732,20.65824 22.1781,34.03088 1.1737,5.59515 1.1064,6.08865 -1.1364,8.33343 -2.2596,2.26161 -3.3146,2.39668 -20.2231,2.58929 -9.8116,0.11176 -19.6679,-0.24669 -21.9029,-0.79657 z M 944.59379,281.36265 c -2.44972,-3.49747 -2.02756,-6.78574 1.19679,-9.32202 5.15713,-4.0566 17.4094,-0.71903 17.4094,4.7424 0,4.48291 -3.83663,6.9503 -10.80732,6.9503 -5.13404,0 -6.41007,-0.38789 -7.79887,-2.37068 z M 641.59998,229.23996 c -13.2449,-1.71814 -21.56194,-6.13757 -34.51906,-18.34238 -11.12528,-10.47932 -16.86243,-14.18519 -24.37498,-15.74479 -5.20445,-1.08044 -5.99518,-1.61072 -7.39396,-4.95847 -2.36451,-5.65905 -0.99785,-9.13092 6.74689,-17.13986 3.82288,-3.95329 10.93584,-12.50043 15.80657,-18.99364 10.74306,-14.32168 17.53921,-20.60737 27.58016,-25.50867 13.00339,-6.34737 25.60799,-8.46235 34.95682,-5.86554 4.60186,1.27825 21.60152,12.31659 25.65089,16.65582 4.87289,5.22169 14.74427,20.95602 15.96502,25.44719 1.36374,5.01724 0.53803,17.01255 -1.66452,24.1809 -5.89148,19.17417 -21.69802,35.47944 -37.95383,39.15135 -7.44165,1.68094 -13.81858,2.02373 -20.8,1.11809 z m 16.23972,-22.74897 c 13.35157,-3.55452 21.38667,-13.02052 24.31866,-28.64937 1.11053,-5.91964 -3.29596,-14.40007 -12.00937,-23.11245 -9.6063,-9.60514 -14.79421,-12.27345 -23.74901,-12.21487 -8.55767,0.056 -13.63235,2.46658 -20.381,9.68144 -6.83911,7.31157 -8.95233,13.43418 -8.95233,25.93759 0,9.25383 0.27647,10.63253 3.18542,15.88502 1.84948,3.33949 4.89289,6.88163 7.25676,8.44596 7.91882,5.24044 19.83131,6.82192 30.33087,4.02668 z m -124.84124,-4.85396 c -6.81352,-2.16941 -7.72188,-5.47394 -3.15172,-11.46574 6.08429,-7.9769 14.98614,-7.98069 18.76944,-0.007 2.43297,5.12712 2.23991,7.88866 -0.68548,9.80546 -3.11322,2.03986 -10.99835,2.9208 -14.93224,1.66827 z"
       id="path4534"
       inkscape:connector-curvature="0" />
    <path
       style="fill:#20536b;stroke-width:1"
       d="m 551.46665,553.17142 c -10.60616,-3.24496 -16.87148,-6.11406 -21.07467,-9.65081 -4.4275,-3.72549 -4.3689,-5.64916 0.23065,-7.57097 2.921,-1.22048 8.75213,-1.48682 28,-1.27891 22.65039,0.24466 24.89019,0.0948 32.79595,-2.19412 34.64234,-10.02986 57.02435,-39.41954 57.09622,-74.97267 0.0575,-28.43271 -18.30148,-57.77398 -44.24815,-70.71733 -16.8413,-8.40119 -33.28985,-10.60683 -53.17266,-7.13009 -19.71217,3.4469 -24.16067,2.84617 -24.16067,-3.26273 0,-4.8551 3.4307,-8.79512 10.3543,-11.89152 9.17023,-4.10113 18.47869,-5.33074 36.34641,-4.8012 14.54615,0.43109 16.56244,0.75097 27.45056,4.35511 32.24573,10.67381 54.06224,34.03974 63.02455,67.50056 2.82871,10.56102 2.82465,36.22463 -0.007,47.37658 -9.54442,37.5823 -37.59135,64.33998 -78.37276,74.7701 -11.02772,2.82041 -23.96119,2.61959 -34.26222,-0.532 z m -307.32258,-72.5097 c -5.14648,-1.83914 -9.08017,-4.74213 -14.99633,-11.06698 -6.95559,-7.43609 -8.62968,-11.20853 -9.19376,-20.71745 -0.40819,-6.88103 -0.11385,-8.95773 1.84243,-12.99885 6.13977,-12.68306 21.39257,-19.81557 42.47025,-19.85993 10.19705,-0.0214 12.11694,1.15464 14.24313,8.72521 2.04261,7.27302 1.85877,34.67794 -0.26334,39.25627 -6.35499,13.71042 -21.56544,21.14195 -34.10238,16.66173 z m 18.80549,-16.2076 c 5.35824,-2.54265 7.38827,-6.89706 7.42228,-15.9208 0.0354,-9.38494 -2.32695,-13.92054 -9.06292,-17.40055 -6.47846,-3.34697 -16.97703,-2.9769 -22.25962,0.78465 -10.72792,7.63894 -12.99283,22.69045 -4.56246,30.31984 5.66068,5.12284 19.98733,6.23869 28.46272,2.21686 z m 22.65043,-71.66254 c -3.05016,-0.6776 -2.21571,-5.24204 1.74929,-9.56862 3.12853,-3.4138 3.84746,-3.75355 5.33334,-2.52039 0.94455,0.78391 1.71737,2.97213 1.71737,4.86271 0,4.72198 -4.27408,8.23173 -8.8,7.2263 z M 146.66666,357.66027 c -6.02245,-1.61509 -23.81581,-9.36249 -28.63378,-12.46742 -10.77384,-6.94319 -19.899351,-18.65767 -24.143306,-30.99293 -4.514406,-13.12136 -3.823739,-25.55608 2.302684,-41.45736 2.971676,-7.71305 3.845752,-8.87294 11.907422,-15.80099 9.08806,-7.81011 15.93588,-11.91336 21.72563,-13.01811 5.68429,-1.08463 5.21073,1.2908 -1.41873,7.11654 -15.43913,13.56737 -20.14619,20.07052 -23.30481,32.19728 -5.772189,22.16093 4.74588,47.95782 23.23442,56.9854 19.92897,9.7309 46.37983,4.92465 62.13972,-11.29108 4.21486,-4.33677 6.43792,-8.15633 11.71705,-20.13161 l 1.88088,-4.26667 0.85636,5.86667 c 3.07478,21.06445 -11.19573,37.03379 -39.60296,44.31748 -12.82623,3.28868 -15.68798,3.73998 -18.66058,2.9428 z m 724.69009,-7.51643 c -4.43045,-3.72798 -10.87786,-17.36814 -18.02978,-38.14385 -7.6398,-22.19295 -13.68319,-37.45844 -15.39008,-38.87504 -1.71053,-1.41961 -4.57216,5.00685 -14.58409,32.75202 -11.27874,31.25581 -20.13262,46.64324 -26.41895,45.91439 -1.89413,-0.21962 -2.90363,-1.04635 -3.11906,-2.55436 -0.32424,-2.26953 15.43934,-48.93656 23.76641,-70.35886 7.71769,-19.85464 16.30625,-35.67815 19.36509,-35.67815 3.53227,0 10.67347,13.65742 21.76497,41.62515 11.23845,28.33824 20.22205,56.55722 20.22205,63.52076 0,1.38919 -0.91917,3.00429 -2.05604,3.61272 -1.64769,0.88182 -2.74415,0.52138 -5.52052,-1.81478 z m 42.50989,0.70404 c -4.55186,-2.65122 1.11004,-10.32182 6.62051,-8.96928 6.66976,1.63709 10.32823,6.20463 6.94893,8.67564 -2.30605,1.68623 -10.86068,1.87135 -13.56944,0.29364 z m 29.63593,-0.0189 c 0.4927,-0.82262 2.72619,-3.93929 4.96328,-6.92594 5.01015,-6.68879 5.19871,-10.2112 0.86232,-16.10777 -2.76955,-3.76602 -6.1698,-14.77592 -4.94239,-16.00332 0.21783,-0.21784 2.43412,-0.0702 4.92509,0.32816 13.94486,2.22987 18.10287,22.03438 7.15211,34.06545 -3.65221,4.01251 -5.31623,5.01554 -9.15962,5.52119 -3.8475,0.5062 -4.53467,0.3475 -3.80079,-0.87777 z m 86.44533,0.23576 c -1.7712,-2.86583 -3.8671,-16.54718 -4.8349,-31.56062 -0.6064,-9.40729 -1.5818,-24.67914 -2.1675,-33.93744 -0.5857,-9.25831 -1.5904,-18.92038 -2.2328,-21.47126 -1.7046,-6.76979 -6.0723,-11.4804 -12.8429,-13.85132 -7.5417,-2.64093 -8.27436,-3.4611 -3.9753,-4.44992 5.2505,-1.20764 53.6521,-0.8952 55.8965,0.36082 1.781,0.99672 1.7724,1.09023 -0.1506,1.6248 -1.1222,0.31198 -3.9438,0.89028 -6.2702,1.28514 -6.7264,1.14166 -9.7387,3.24548 -11.7805,8.22738 -1.5913,3.88266 -2.002,9.97739 -2.7161,40.30765 -0.796,33.80634 -1.722,44.68121 -4.3824,51.46667 -1.1242,2.86744 -3.3901,3.86397 -4.5433,1.9981 z m 92.1854,-0.5302 c -12.3448,-3.39855 -16.6428,-7.50036 -21.0063,-20.04776 -5.5106,-15.84558 -2.8053,-36.94732 6.0222,-46.97595 5.39,-6.12332 15.207,-11.49423 17.9063,-9.79653 2.8144,1.77009 2.7722,3.8612 -0.1605,7.93939 -7.5945,10.56103 -14.8052,23.14564 -15.2769,26.66237 -0.2897,2.15938 0.065,7.4333 0.788,11.71981 1.1786,6.9883 1.8222,8.33647 6.2279,13.04652 8.7689,9.37459 14.3259,10.92225 31.8174,8.86132 9.6277,-1.13439 11.4403,-0.57692 9.8036,3.01519 -2.0532,4.50636 -9.8668,7.05255 -21.3861,6.96908 -5.4646,-0.0396 -12.0956,-0.66664 -14.7356,-1.39344 z m 84.3938,-1.82848 c -3.7474,-10.74968 -5.2513,-67.24329 -2.3544,-88.43942 2.2953,-16.79482 5.5314,-21.37583 8.3131,-11.76815 4.8008,16.58146 4.7822,84.41875 -0.027,99.09723 -1.656,5.05428 -4.3791,5.564 -5.9317,1.11034 z m 54.9813,1.28549 c -3.916,-2.58187 -7.5788,-7.0857 -14.8487,-18.25825 -8.3531,-12.83701 -12.8092,-21.96213 -11.9881,-24.54903 0.3737,-1.17742 3.4611,-4.02967 6.8607,-6.33836 13.0213,-8.84259 17.1777,-17.59969 13.763,-28.99694 -1.9929,-6.65198 -7.2475,-11.90809 -14.0475,-14.0516 -3.7863,-1.1935 -6.8982,-3.03331 -8.6478,-5.11275 -3.3527,-3.98428 -3.431,-5.67505 -0.3627,-7.82417 6.0247,-4.21992 16.3069,-0.0413 26.4705,10.75768 8.254,8.76988 10.8646,13.73628 11.4753,21.82972 0.536,7.10431 -1.358,12.00939 -9.5958,24.8515 -7.2686,11.33107 -7.2581,13.6279 0.1345,29.26862 5.8887,12.45878 7.9534,20.4377 5.2853,20.42497 -0.8105,-0.004 -2.835,-0.90449 -4.4987,-2.00139 z M 831.67428,330.98668 c -3.02467,-0.78406 -1.53035,-2.84179 3.29691,-4.54001 4.98753,-1.75459 10.10806,-0.68084 10.67008,2.23745 0.49962,2.59429 -7.65525,3.93869 -13.96699,2.30256 z M 1132.8,317.15051 c -6.1211,-0.97699 -11.7334,-3.7261 -11.7334,-5.74748 0,-3.50179 4.5812,-5.34542 16.1668,-6.50614 13.0949,-1.31195 16.8999,-2.90757 16.8999,-7.08695 0,-3.40615 -1.7623,-6.24746 -8.2518,-13.30386 -3.5608,-3.87182 -4.6043,-5.7911 -4.3498,-8 0.2813,-2.44065 0.9123,-2.96128 3.9402,-3.25067 3.1846,-0.30439 4.3153,0.38556 9.6921,5.91469 7.9706,8.19612 13.2931,18.81754 13.2931,26.52685 0,6.61893 -2.0163,9.47978 -7.817,11.0911 -3.6651,1.01811 -22.219,1.25965 -27.8401,0.36246 z m -216.41105,-7.69488 c -8.40804,-8.40804 -7.78795,-20.93171 1.51011,-30.49871 7.7195,-7.94278 8.50092,-7.01167 8.50092,10.12949 0,12.58496 -0.27355,14.84589 -2.19109,18.11009 -2.62874,4.47488 -4.93728,5.14179 -7.81994,2.25913 z m 28.67769,-27.85564 c -1.17333,-1.17333 -2.13333,-3.04016 -2.13333,-4.1485 0,-2.55249 3.06188,-6.13898 5.95359,-6.97364 2.7945,-0.8066 8.85243,3.13142 11.08565,7.20637 1.50766,2.751 1.47504,3.08287 -0.44311,4.50933 -3.16494,2.35364 -11.87298,1.99625 -14.4628,-0.59356 z M 636.91159,227.64531 c -8.5417,-2.297 -15.41637,-6.44765 -25.46652,-15.37571 -15.18328,-13.48806 -22.75506,-18.13627 -29.54337,-18.13627 -4.73396,0 -6.96838,-2.80202 -6.96838,-8.73854 0,-3.8042 0.60054,-5.43777 2.81212,-7.64934 1.54666,-1.54667 3.82666,-2.81391 5.06666,-2.81611 6.21873,-0.011 10.04242,-4.9557 17.31863,-22.39601 5.43265,-13.02149 29.37749,-28.58641 45.56834,-29.62089 6.85253,-0.43782 8.65034,-0.0951 17.5574,3.34703 17.2988,6.68513 24.11252,12.46939 31.25544,26.53317 10.91752,21.49562 7.09586,44.75819 -10.2213,62.2173 -12.44229,12.54426 -30.15342,17.26759 -47.37902,12.63537 z m 26.02173,-21.94733 c 13.53235,-4.40167 23.70025,-27.42315 17.87846,-40.4792 -3.07733,-6.90129 -10.95926,-15.01877 -18.6117,-19.16791 -6.08475,-3.29916 -7.55551,-3.64909 -15.26676,-3.63241 -9.75647,0.0211 -14.82257,2.07522 -21.44077,8.69341 -6.76319,6.7632 -8.4259,11.88493 -8.4259,25.95479 0,10.53783 0.32448,12.868 2.30232,16.53333 5.70553,10.57357 14.58134,14.75096 29.69768,13.9772 5.28,-0.27027 11.52,-1.11592 13.86667,-1.87921 z M 529.304,199.93951 c -2.96588,-2.07738 -3.01091,-4.70455 -0.14316,-8.35031 4.59897,-5.84663 14.65891,-8.17882 16.93495,-3.92599 1.83814,3.43459 1.25305,7.1962 -1.65729,10.65494 -2.36057,2.80539 -3.48756,3.28184 -7.76266,3.28184 -2.80009,0 -6.04454,-0.7308 -7.37184,-1.66048 z"
       id="path4532"
       inkscape:connector-curvature="0" />
    <path
       style="fill:#063964;stroke-width:1"
       d="m 570.15756,553.26662 c -1.4987,-1.13166 -2.10909,-2.85736 -2.10909,-5.96292 0,-6.48858 3.51835,-9.53892 12.46365,-10.80572 15.69771,-2.22307 31.40912,-10.42218 45.031,-23.49971 9.96012,-9.56211 15.53429,-18.29666 19.34524,-30.31336 7.47226,-23.5616 4.71504,-47.50438 -7.78745,-67.62338 -9.97168,-16.04644 -23.68808,-26.87244 -44.12648,-34.82791 -13.90607,-5.41281 -21.28233,-9.67698 -24.0523,-13.90451 -1.83525,-2.80094 -1.82097,-2.92018 0.58309,-4.86687 7.93991,-6.42934 35.08522,2.02017 55.52251,17.28247 20.17506,15.06648 32.57113,33.65468 38.05804,57.06891 2.86949,12.24498 2.59908,32.08304 -0.6023,44.18583 -7.2785,27.51633 -24.56096,49.54058 -49.33786,62.8747 -16.10092,8.66499 -38.20035,14.00758 -42.98805,10.39247 z M 241.59999,479.14293 c -5.64812,-3.60306 -15.47176,-14.89629 -18.26487,-20.99723 -9.76867,-21.33758 6.82267,-39.05189 39.09725,-41.74348 14.32226,-1.19443 16.09762,1.41207 16.7996,24.66443 0.55019,18.22413 -0.36223,23.24255 -5.23478,28.7921 -7.58095,8.63422 -25.40775,13.74291 -32.3972,9.28418 z m 21.58996,-14.44422 c 5.78716,-3.02999 7.21004,-6.32542 7.21004,-16.69872 0,-11.02874 -1.56978,-14.09625 -8.86507,-17.32331 -6.56415,-2.90364 -17.5174,-2.98247 -23.1883,-0.16689 -5.61852,2.78958 -7.86755,6.31132 -9.274,14.52206 -1.1324,6.61095 -1.04896,7.3226 1.42168,12.12352 3.96404,7.70288 9.57878,10.35734 20.70569,9.78899 5.17951,-0.26457 9.89188,-1.14717 11.98996,-2.24565 z M 135.8717,353.21631 c -13.80828,-5.75057 -19.19666,-9.15047 -26.91535,-16.98277 -10.932844,-11.09374 -16.158462,-24.81949 -16.129773,-42.36688 0.02189,-13.38946 5.193955,-28.70599 11.320803,-33.52537 5.70739,-4.48943 5.64745,-0.58855 -0.29384,19.12537 -2.70404,8.97232 -2.46588,28.58065 0.44351,36.51528 8.46111,23.07559 31.76153,33.75472 61.31207,28.10077 9.55071,-1.82735 13.93558,-3.57366 19.9952,-7.96323 4.67885,-3.38935 7.82955,-4.06633 10.64361,-2.28698 4.15112,2.6248 -13.67817,13.52108 -33.91151,20.72485 -10.49618,3.73701 -14.79427,3.51922 -26.46472,-1.34104 z m 659.50606,-1.92743 c -1.59386,-1.59387 -0.19365,-6.50783 11.47849,-40.28301 15.69872,-45.42671 22.23894,-60.68111 28.41167,-66.26736 2.24921,-2.03551 2.28756,-2.03027 4.42108,0.60409 12.61594,15.57739 41.05922,102.99537 34.25884,105.29158 -2.63769,0.89063 -7.09135,-8.89409 -26.42231,-58.04996 -3.96877,-10.09201 -7.85593,-19.21201 -8.63813,-20.26667 -1.35966,-1.83325 -1.4934,-1.82377 -3.04201,0.21578 -0.8909,1.17333 -5.30267,11.49333 -9.80392,22.93333 -12.14182,30.85865 -17.71143,43.56788 -22.08697,50.4 -3.64812,5.69628 -6.49982,7.49913 -8.57674,5.42222 z m 148.62222,-0.11173 c 0,-0.45256 2.4,-4.11486 5.33333,-8.13842 6.47853,-8.8864 6.77378,-11.93443 1.86667,-19.27 -1.90667,-2.85025 -4.30414,-6.42423 -5.32773,-7.94218 -2.64337,-3.92006 -2.34541,-4.62947 1.59439,-3.79615 10.89265,2.30394 16.04561,18.63583 9.82103,31.12694 -1.87549,3.76362 -3.81752,5.96734 -6.29453,7.14277 -3.83692,1.82073 -6.99316,2.21657 -6.99316,0.87704 z m 86.45272,-0.71363 c -2.9012,-3.4957 -4.4143,-18.65768 -5.3289,-53.39686 -0.5318,-20.19627 -1.4391,-36.88429 -2.1287,-39.15148 -1.6396,-5.39045 -5.1337,-7.81533 -13.649,-9.47242 -6.3798,-1.24152 -6.8432,-1.48755 -4.0128,-2.13032 4.1393,-0.94002 48.0762,-0.94851 52.2667,-0.01 2.9031,0.65012 2.6021,0.83726 -3.2432,2.01684 -7.5524,1.52407 -10.5068,3.35088 -12.9578,8.01223 -1.5078,2.86763 -1.9149,8.70068 -2.5922,37.14072 -0.8143,34.19328 -2.0526,48.68641 -4.7017,55.02653 -1.6586,3.96973 -1.8867,4.0924 -3.6524,1.96486 z m 93.1404,-0.0556 c -16.5828,-3.60655 -22.8361,-12.33702 -22.8897,-31.95721 -0.031,-11.35974 1.2865,-17.7102 5.5803,-26.89679 4.7148,-10.08711 16.8728,-20.0242 20.3028,-16.5941 0.7516,0.75161 0.6431,2.02272 -0.3447,4.03686 -1.4538,2.96422 -2.266,3.57321 -7.5317,5.64664 -7.2064,2.83769 -11.534,23.05939 -8.2309,38.46128 0.6302,2.93865 2.9822,8.18426 5.2267,11.65691 3.2984,5.10328 5.0168,6.67135 8.9624,8.17818 4.6181,1.76365 5.5614,1.76762 17.4751,0.0736 6.9264,-0.98489 13.4177,-1.47445 14.4251,-1.0879 4.7411,1.81935 -0.5783,7.13748 -8.931,8.92881 -6.9596,1.49256 -15.892,1.32678 -24.0444,-0.44624 z m 84.0036,-0.29843 c -2.4897,-4.65202 -3.5117,-15.64697 -4.0623,-43.70564 -0.5963,-30.38121 0.3822,-48.24275 3.1703,-57.8727 0.7382,-2.54965 1.8862,-4.81708 2.5511,-5.03871 6.8685,-2.28952 9.2339,81.8861 2.9003,103.21359 -1.6598,5.58928 -2.8959,6.51192 -4.5594,3.40346 z m 53.7305,-1.45798 c -8.3031,-7.29023 -26.1272,-34.17161 -26.1272,-39.40372 0,-3.51402 1.1671,-4.47644 8.2169,-6.77589 3.4619,-1.12919 6.7226,-3.14551 8.6658,-5.35882 3.8472,-4.38162 6.0113,-12.76677 5.0132,-19.42322 -1.5132,-10.09059 -4.7843,-14.82165 -15.0264,-21.73292 -8.308,-5.60624 -11.1048,-8.94834 -9.1359,-10.91725 3.0351,-3.03509 21.4726,6.56124 29.271,15.23489 11.3152,12.58528 10.4716,26.16422 -2.5499,41.04465 -8.3264,9.51503 -8.2909,11.36724 0.5796,30.2526 8.6677,18.45354 9.0255,24.04462 1.0929,17.07971 z M 830.39874,329.598 c -1.50674,-2.43797 10.88638,-4.37819 14.27123,-2.23427 0.80849,0.5121 1.14016,1.46474 0.73705,2.11701 -0.91588,1.48192 -14.10119,1.58494 -15.00828,0.11726 z M 1128.112,315.89447 c -1.4501,-0.59606 0.208,-1.21504 5.8666,-2.19018 15.1376,-2.60861 20.4155,-6.8716 20.5056,-16.56282 0.066,-7.0688 -2.4624,-11.8168 -7.1085,-13.35016 -3.4374,-1.13443 -6.0424,-4.63006 -6.0424,-8.10817 0,-4.70817 12.2161,2.16491 18.5067,10.41233 4.5322,5.942 8.1383,14.84428 8.1495,20.11859 0.011,3.87333 -0.557,5.41446 -2.739,7.46667 -2.6343,2.47766 -3.427,2.59553 -18.9333,2.81527 -8.9011,0.12615 -17.0934,-0.14454 -18.2052,-0.60153 z m -212.04225,-7.31419 c -5.44868,-6.2094 -6.57997,-14.79147 -2.94078,-22.30904 2.12162,-4.38268 9.54961,-12.13791 11.62575,-12.13791 3.16197,0 2.63506,24.97607 -0.66959,31.73897 -2.21235,4.52754 -5.45686,5.62369 -8.01538,2.70798 z m 29.05562,-27.68123 c -3.59148,-4.56583 -0.71257,-9.96572 5.31316,-9.96572 5.45409,0 8.01948,5.69146 4.70097,10.42932 -2.36149,3.37149 -7.17264,3.14875 -10.01413,-0.4636 z M 640.53332,228.12228 c -9.38601,-1.81951 -19.5073,-7.70301 -30.92526,-17.97684 -11.84055,-10.65406 -20.71341,-16.01211 -26.51583,-16.01211 -8.13601,0 -11.23533,-9.88768 -5.04096,-16.08205 1.71487,-1.71488 4.14642,-3.11795 5.40346,-3.11795 5.9662,0 11.99285,-5.81127 15.47379,-14.92078 7.21943,-18.89303 26.42188,-32.28294 48.53813,-33.84576 24.66898,-1.74321 44.58992,12.77913 49.12077,35.80895 1.68415,8.56036 0.76054,21.91878 -2.16735,31.34708 -7.19611,23.17267 -31.82319,39.07657 -53.88675,34.79946 z m 22.98877,-19.62263 c 13.13813,-7.98099 19.67101,-19.0496 19.49666,-33.03299 -0.11851,-9.50361 -2.81257,-15.81792 -9.98425,-23.4009 -7.48769,-7.91713 -14.0325,-10.70292 -25.03452,-10.65587 -10.70085,0.0458 -18.20554,3.32853 -25.54358,11.17348 -7.47339,7.98965 -9.65392,13.53112 -9.63403,24.48329 0.0143,7.87669 0.4456,9.97758 3.2862,16.00712 3.43268,7.28631 8.21285,12.86779 13.25225,15.47377 1.65061,0.85356 6.99968,2.7109 11.8868,4.1274 10.09375,2.92562 10.80437,2.79241 22.27447,-4.1753 z"
       id="path4530"
       inkscape:connector-curvature="0" />
  </g>
</svg>
